M48
; DRILL file {KiCad (5.1.5)-3} date 23-Jan-20 23:19:01
; FORMAT={-:-/ absolute / inch / decimal}
; #@! TF.CreationDate,2020-01-23T23:19:01+02:00
; #@! TF.GenerationSoftware,Kicad,Pcbnew,(5.1.5)-3
; #@! TF.FileFunction,Plated,1,2,PTH
FMAT,2
INCH
T1C0.0276
T2C0.0315
T3C0.0394
T4C0.0400
T5C0.0472
T6C0.0591
T7C0.0669
%
G90
G05
T1
X3.39Y-5.815
X3.69Y-5.815
X3.24Y-4.295
X3.54Y-4.295
X3.39Y-5.645
X3.69Y-5.645
X3.855Y-5.5
X4.155Y-5.5
X3.39Y-5.5
X3.69Y-5.5
T2
X2.35Y-2.95
X2.35Y-3.05
X2.35Y-3.15
X2.35Y-3.25
X2.35Y-3.35
X2.45Y-2.95
X2.45Y-3.05
X2.45Y-3.15
X2.45Y-3.25
X2.45Y-3.35
X2.55Y-2.95
X2.55Y-3.05
X2.55Y-3.15
X2.55Y-3.25
X2.55Y-3.35
X2.65Y-2.95
X2.65Y-3.05
X2.65Y-3.15
X2.65Y-3.15
X2.65Y-3.25
X2.65Y-3.35
X3.6Y-3.55
X3.6Y-3.65
X3.6Y-3.75
X3.6Y-3.85
X3.6Y-3.95
X3.7Y-3.55
X3.7Y-3.65
X3.7Y-3.75
X3.7Y-3.85
X3.7Y-3.95
X3.8Y-3.55
X3.8Y-3.65
X3.8Y-3.75
X3.8Y-3.85
X3.8Y-3.95
X3.9Y-3.55
X3.9Y-3.65
X3.9Y-3.75
X3.9Y-3.85
X3.9Y-3.95
X3.9Y-3.95
X4.0Y-3.55
X4.0Y-3.65
X4.0Y-3.75
X4.0Y-3.85
X4.0Y-3.95
X4.1Y-3.55
X4.1Y-3.65
X4.1Y-3.75
X4.1Y-3.85
X4.1Y-3.95
X4.45Y-3.85
X4.45Y-3.95
X4.45Y-4.05
X4.45Y-4.15
X4.55Y-3.85
X4.55Y-3.95
X4.55Y-4.05
X4.55Y-4.15
X4.65Y-3.85
X4.65Y-3.95
X4.65Y-4.05
X4.65Y-4.15
X4.65Y-4.15
X4.75Y-3.85
X4.75Y-3.95
X4.75Y-4.05
X4.75Y-4.15
X4.85Y-3.85
X4.85Y-3.95
X4.85Y-4.05
X4.85Y-4.15
X5.175Y-3.025
X5.175Y-3.125
X5.175Y-3.225
X5.175Y-3.325
X5.175Y-3.425
X5.275Y-3.025
X5.275Y-3.125
X5.275Y-3.225
X5.275Y-3.325
X5.275Y-3.425
X5.375Y-3.025
X5.375Y-3.125
X5.375Y-3.225
X5.375Y-3.325
X5.375Y-3.425
X5.475Y-3.025
X5.475Y-3.125
X5.475Y-3.225
X5.475Y-3.325
X5.475Y-3.425
X5.475Y-3.425
X5.575Y-3.025
X5.575Y-3.125
X5.575Y-3.225
X5.575Y-3.325
X5.575Y-3.425
X5.675Y-3.025
X5.675Y-3.125
X5.675Y-3.225
X5.675Y-3.325
X5.675Y-3.425
X2.6Y-4.985
X2.7969Y-4.985
X2.5872Y-3.75
X2.725Y-3.75
X3.42Y-4.51
X3.42Y-4.7069
X4.85Y-4.6622
X4.85Y-4.8
X5.6381Y-3.93
X5.835Y-3.93
X2.5981Y-5.135
X2.795Y-5.135
X5.22Y-4.6881
X5.22Y-4.885
X2.94Y-4.515
X2.94Y-4.615
X2.94Y-4.715
X2.94Y-4.815
X2.94Y-4.915
X2.94Y-5.015
X2.94Y-5.115
X2.94Y-5.215
X2.94Y-5.315
X2.94Y-5.415
X2.94Y-5.515
X2.94Y-5.615
X2.94Y-5.715
X2.94Y-5.815
X3.24Y-4.515
X3.24Y-4.615
X3.24Y-4.715
X3.24Y-4.815
X3.24Y-4.915
X3.24Y-5.015
X3.24Y-5.115
X3.24Y-5.215
X3.24Y-5.315
X3.24Y-5.415
X3.24Y-5.515
X3.24Y-5.615
X3.24Y-5.715
X3.24Y-5.815
X3.42Y-4.815
X3.42Y-5.0119
X3.65Y-4.665
X3.65Y-4.8571
X2.53Y-4.035
X2.7269Y-4.035
X3.36Y-5.155
X3.5569Y-5.155
X5.84Y-4.085
X5.84Y-4.485
X5.64Y-4.085
X5.64Y-4.485
T3
X4.7187Y-5.9978
X4.8187Y-5.1435
X4.8187Y-5.9978
X4.9187Y-5.1435
X4.9187Y-5.9978
X5.0187Y-5.1435
X5.0187Y-5.9978
X5.1187Y-5.1435
X5.1187Y-5.9978
X5.2187Y-5.1435
X5.2187Y-5.9978
X5.3187Y-5.1435
X4.675Y-3.0531
X4.675Y-3.25
X3.25Y-3.2
X3.4469Y-3.2
T4
X2.17Y-4.725
X2.17Y-4.825
X2.17Y-4.925
X2.17Y-5.025
X2.17Y-5.125
X2.17Y-5.225
X2.17Y-5.325
X2.17Y-5.425
X2.27Y-4.725
X2.27Y-4.825
X2.27Y-4.925
X2.27Y-5.025
X2.27Y-5.125
X2.27Y-5.225
X2.27Y-5.325
X2.27Y-5.425
T5
X5.225Y-3.925
X5.225Y-4.425
X3.02Y-3.52
X3.02Y-4.02
T6
X5.8Y-4.8
T7
X3.775Y-2.95
X3.9309Y-2.95
X4.0868Y-2.95
X4.2427Y-2.95
X2.18Y-3.7623
X2.18Y-3.9182
X2.18Y-4.0741
X2.18Y-4.23
X5.7Y-4.7
X5.7Y-4.9
X5.9Y-4.7
X5.9Y-4.9
T0
M30
