G04 #@! TF.GenerationSoftware,KiCad,Pcbnew,(5.1.5)-3*
G04 #@! TF.CreationDate,2020-01-23T23:18:57+02:00*
G04 #@! TF.ProjectId,TrafficSignPCB,54726166-6669-4635-9369-676e5043422e,rev?*
G04 #@! TF.SameCoordinates,Original*
G04 #@! TF.FileFunction,Copper,L1,Top*
G04 #@! TF.FilePolarity,Positive*
%FSLAX46Y46*%
G04 Gerber Fmt 4.6, Leading zero omitted, Abs format (unit mm)*
G04 Created by KiCad (PCBNEW (5.1.5)-3) date 2020-01-23 23:18:57*
%MOMM*%
%LPD*%
G04 APERTURE LIST*
%ADD10R,1.524000X1.524000*%
%ADD11C,1.524000*%
%ADD12C,1.600000*%
%ADD13R,15.400000X14.800000*%
%ADD14R,4.600000X1.100000*%
%ADD15R,1.527200X1.527200*%
%ADD16O,1.727200X1.527200*%
%ADD17R,1.600000X1.600000*%
%ADD18O,1.600000X1.400000*%
%ADD19C,2.050000*%
%ADD20C,2.250000*%
%ADD21C,2.000000*%
%ADD22R,2.000000X2.000000*%
%ADD23R,3.900000X5.000000*%
%ADD24R,5.000000X3.900000*%
%ADD25O,1.600000X1.600000*%
%ADD26R,1.100000X4.600000*%
%ADD27R,14.800000X15.400000*%
%ADD28C,0.100000*%
%ADD29O,3.160000X4.100000*%
%ADD30O,4.100000X3.160000*%
%ADD31O,1.400000X1.400000*%
%ADD32C,1.400000*%
%ADD33C,1.500000*%
%ADD34O,2.400000X2.400000*%
%ADD35R,2.400000X2.400000*%
%ADD36C,1.200000*%
%ADD37C,1.905000*%
%ADD38C,1.270000*%
%ADD39C,3.175000*%
%ADD40C,0.381000*%
%ADD41C,0.635000*%
%ADD42C,0.254000*%
G04 APERTURE END LIST*
D10*
X135096000Y-130645000D03*
D11*
X132556000Y-130645000D03*
X130016000Y-130645000D03*
X127476000Y-130645000D03*
X124936000Y-130645000D03*
X122396000Y-130645000D03*
D10*
X132556000Y-152345000D03*
D11*
X130016000Y-152345000D03*
X127476000Y-152345000D03*
X124936000Y-152345000D03*
X122396000Y-152345000D03*
X119856000Y-152345000D03*
D12*
X64262000Y-102489000D03*
X69262000Y-102489000D03*
D13*
X97561000Y-95504000D03*
D14*
X85411000Y-98904000D03*
X85411000Y-97204000D03*
X85411000Y-95504000D03*
X85411000Y-93804000D03*
X85411000Y-92104000D03*
D15*
X57658000Y-137795000D03*
D16*
X55118000Y-137795000D03*
X57658000Y-135255000D03*
X55118000Y-135255000D03*
X57658000Y-132715000D03*
X55118000Y-132715000D03*
X57658000Y-130175000D03*
X55118000Y-130175000D03*
X57658000Y-127635000D03*
X55118000Y-127635000D03*
X57658000Y-125095000D03*
X55118000Y-125095000D03*
X57658000Y-122555000D03*
X55118000Y-122555000D03*
X57658000Y-120015000D03*
X55118000Y-120015000D03*
D17*
X82296000Y-147701000D03*
D18*
X74676000Y-114681000D03*
X82296000Y-145161000D03*
X74676000Y-117221000D03*
X82296000Y-142621000D03*
X74676000Y-119761000D03*
X82296000Y-140081000D03*
X74676000Y-122301000D03*
X82296000Y-137541000D03*
X74676000Y-124841000D03*
X82296000Y-135001000D03*
X74676000Y-127381000D03*
X82296000Y-132461000D03*
X74676000Y-129921000D03*
X82296000Y-129921000D03*
X74676000Y-132461000D03*
X82296000Y-127381000D03*
X74676000Y-135001000D03*
X82296000Y-124841000D03*
X74676000Y-137541000D03*
X82296000Y-122301000D03*
X74676000Y-140081000D03*
X82296000Y-119761000D03*
X74676000Y-142621000D03*
X82296000Y-117221000D03*
X74676000Y-145161000D03*
X82296000Y-114681000D03*
X74676000Y-147701000D03*
D19*
X147320000Y-121920000D03*
D20*
X149860000Y-124460000D03*
X149860000Y-119380000D03*
X144780000Y-119380000D03*
X144780000Y-124460000D03*
D12*
X86868000Y-114554000D03*
X86868000Y-119554000D03*
X86868000Y-127301000D03*
X86868000Y-122301000D03*
X148209000Y-99822000D03*
X143209000Y-99822000D03*
D21*
X87550000Y-81280000D03*
D22*
X82550000Y-81280000D03*
D21*
X118745000Y-77550000D03*
D22*
X118745000Y-82550000D03*
D23*
X118110000Y-92750000D03*
X118110000Y-110450000D03*
D24*
X54650000Y-80010000D03*
X72350000Y-80010000D03*
D12*
X148336000Y-103759000D03*
D25*
X148336000Y-113919000D03*
X143256000Y-103759000D03*
D12*
X143256000Y-113919000D03*
D26*
X134268000Y-94421000D03*
X135968000Y-94421000D03*
X137668000Y-94421000D03*
X139368000Y-94421000D03*
X141068000Y-94421000D03*
D27*
X137668000Y-82271000D03*
G04 #@! TA.AperFunction,ComponentPad*
D28*
G36*
X97239504Y-72881204D02*
G01*
X97263773Y-72884804D01*
X97287571Y-72890765D01*
X97310671Y-72899030D01*
X97332849Y-72909520D01*
X97353893Y-72922133D01*
X97373598Y-72936747D01*
X97391777Y-72953223D01*
X97408253Y-72971402D01*
X97422867Y-72991107D01*
X97435480Y-73012151D01*
X97445970Y-73034329D01*
X97454235Y-73057429D01*
X97460196Y-73081227D01*
X97463796Y-73105496D01*
X97465000Y-73130000D01*
X97465000Y-76730000D01*
X97463796Y-76754504D01*
X97460196Y-76778773D01*
X97454235Y-76802571D01*
X97445970Y-76825671D01*
X97435480Y-76847849D01*
X97422867Y-76868893D01*
X97408253Y-76888598D01*
X97391777Y-76906777D01*
X97373598Y-76923253D01*
X97353893Y-76937867D01*
X97332849Y-76950480D01*
X97310671Y-76960970D01*
X97287571Y-76969235D01*
X97263773Y-76975196D01*
X97239504Y-76978796D01*
X97215000Y-76980000D01*
X94555000Y-76980000D01*
X94530496Y-76978796D01*
X94506227Y-76975196D01*
X94482429Y-76969235D01*
X94459329Y-76960970D01*
X94437151Y-76950480D01*
X94416107Y-76937867D01*
X94396402Y-76923253D01*
X94378223Y-76906777D01*
X94361747Y-76888598D01*
X94347133Y-76868893D01*
X94334520Y-76847849D01*
X94324030Y-76825671D01*
X94315765Y-76802571D01*
X94309804Y-76778773D01*
X94306204Y-76754504D01*
X94305000Y-76730000D01*
X94305000Y-73130000D01*
X94306204Y-73105496D01*
X94309804Y-73081227D01*
X94315765Y-73057429D01*
X94324030Y-73034329D01*
X94334520Y-73012151D01*
X94347133Y-72991107D01*
X94361747Y-72971402D01*
X94378223Y-72953223D01*
X94396402Y-72936747D01*
X94416107Y-72922133D01*
X94437151Y-72909520D01*
X94459329Y-72899030D01*
X94482429Y-72890765D01*
X94506227Y-72884804D01*
X94530496Y-72881204D01*
X94555000Y-72880000D01*
X97215000Y-72880000D01*
X97239504Y-72881204D01*
G37*
G04 #@! TD.AperFunction*
D29*
X99845000Y-74930000D03*
X103805000Y-74930000D03*
X107765000Y-74930000D03*
G04 #@! TA.AperFunction,ComponentPad*
D28*
G36*
X57196504Y-105863204D02*
G01*
X57220773Y-105866804D01*
X57244571Y-105872765D01*
X57267671Y-105881030D01*
X57289849Y-105891520D01*
X57310893Y-105904133D01*
X57330598Y-105918747D01*
X57348777Y-105935223D01*
X57365253Y-105953402D01*
X57379867Y-105973107D01*
X57392480Y-105994151D01*
X57402970Y-106016329D01*
X57411235Y-106039429D01*
X57417196Y-106063227D01*
X57420796Y-106087496D01*
X57422000Y-106112000D01*
X57422000Y-108772000D01*
X57420796Y-108796504D01*
X57417196Y-108820773D01*
X57411235Y-108844571D01*
X57402970Y-108867671D01*
X57392480Y-108889849D01*
X57379867Y-108910893D01*
X57365253Y-108930598D01*
X57348777Y-108948777D01*
X57330598Y-108965253D01*
X57310893Y-108979867D01*
X57289849Y-108992480D01*
X57267671Y-109002970D01*
X57244571Y-109011235D01*
X57220773Y-109017196D01*
X57196504Y-109020796D01*
X57172000Y-109022000D01*
X53572000Y-109022000D01*
X53547496Y-109020796D01*
X53523227Y-109017196D01*
X53499429Y-109011235D01*
X53476329Y-109002970D01*
X53454151Y-108992480D01*
X53433107Y-108979867D01*
X53413402Y-108965253D01*
X53395223Y-108948777D01*
X53378747Y-108930598D01*
X53364133Y-108910893D01*
X53351520Y-108889849D01*
X53341030Y-108867671D01*
X53332765Y-108844571D01*
X53326804Y-108820773D01*
X53323204Y-108796504D01*
X53322000Y-108772000D01*
X53322000Y-106112000D01*
X53323204Y-106087496D01*
X53326804Y-106063227D01*
X53332765Y-106039429D01*
X53341030Y-106016329D01*
X53351520Y-105994151D01*
X53364133Y-105973107D01*
X53378747Y-105953402D01*
X53395223Y-105935223D01*
X53413402Y-105918747D01*
X53433107Y-105904133D01*
X53454151Y-105891520D01*
X53476329Y-105881030D01*
X53499429Y-105872765D01*
X53523227Y-105866804D01*
X53547496Y-105863204D01*
X53572000Y-105862000D01*
X57172000Y-105862000D01*
X57196504Y-105863204D01*
G37*
G04 #@! TD.AperFunction*
D30*
X55372000Y-103482000D03*
X55372000Y-99522000D03*
X55372000Y-95562000D03*
D12*
X65993000Y-130429000D03*
X70993000Y-130429000D03*
X71040000Y-126619000D03*
X66040000Y-126619000D03*
X85344000Y-130937000D03*
X90344000Y-130937000D03*
D17*
X123190000Y-121920000D03*
D12*
X123190000Y-118420000D03*
X65715000Y-95250000D03*
D17*
X69215000Y-95250000D03*
D31*
X93726000Y-139700000D03*
D32*
X86106000Y-139700000D03*
X97917000Y-139700000D03*
D31*
X105537000Y-139700000D03*
D32*
X93726000Y-147701000D03*
D31*
X86106000Y-147701000D03*
D33*
X92710000Y-118491000D03*
X92710000Y-123371000D03*
D32*
X86106000Y-143383000D03*
D31*
X93726000Y-143383000D03*
D12*
X132588000Y-124079000D03*
X132588000Y-119079000D03*
D32*
X82296000Y-109093000D03*
D31*
X89916000Y-109093000D03*
D34*
X132715000Y-112395000D03*
D35*
X132715000Y-99695000D03*
X76708000Y-89408000D03*
D34*
X76708000Y-102108000D03*
D36*
X113030000Y-97790000D03*
X113030000Y-100330000D03*
X113030000Y-102870000D03*
X113030000Y-105410000D03*
X115570000Y-105410000D03*
X115570000Y-102870000D03*
X115570000Y-100330000D03*
X115570000Y-97790000D03*
X118110000Y-100330000D03*
X118110000Y-102870000D03*
X118110000Y-105410000D03*
X118110000Y-105410000D03*
X120650000Y-105410000D03*
X120650000Y-102870000D03*
X120650000Y-97790000D03*
X118110000Y-97790000D03*
X120650000Y-100330000D03*
X123190000Y-100330000D03*
X123190000Y-97790000D03*
X123190000Y-102870000D03*
X123190000Y-105410000D03*
X59690000Y-85090000D03*
X64770000Y-82550000D03*
X62230000Y-74930000D03*
X62230000Y-85090000D03*
X64770000Y-80010000D03*
X59690000Y-74930000D03*
X64770000Y-74930000D03*
X67310000Y-74930000D03*
X59690000Y-82550000D03*
X62230000Y-80010000D03*
X67310000Y-77470000D03*
X67310000Y-80010000D03*
X59690000Y-77470000D03*
X67310000Y-80010000D03*
X59690000Y-80010000D03*
X62230000Y-82550000D03*
X62230000Y-77470000D03*
X64770000Y-77470000D03*
X67310000Y-82550000D03*
X67310000Y-85090000D03*
X64770000Y-85090000D03*
X144145000Y-86995000D03*
X141605000Y-86995000D03*
X139065000Y-86995000D03*
X144145000Y-84455000D03*
X131445000Y-86995000D03*
X133985000Y-86995000D03*
X136525000Y-86995000D03*
X139065000Y-86995000D03*
X136525000Y-76835000D03*
X131445000Y-79375000D03*
X131445000Y-81915000D03*
X144145000Y-76835000D03*
X133985000Y-81915000D03*
X133985000Y-84455000D03*
X133985000Y-79375000D03*
X141605000Y-81915000D03*
X131445000Y-84455000D03*
X136525000Y-79375000D03*
X144145000Y-79375000D03*
X136525000Y-84455000D03*
X136525000Y-81915000D03*
X141605000Y-84455000D03*
X139065000Y-81915000D03*
X139065000Y-84455000D03*
X141605000Y-79375000D03*
X139065000Y-76835000D03*
X144145000Y-81915000D03*
X139065000Y-79375000D03*
X133985000Y-76835000D03*
X131445000Y-76835000D03*
X141605000Y-76835000D03*
X101600000Y-92710000D03*
X99060000Y-92710000D03*
X99060000Y-95250000D03*
X101600000Y-95250000D03*
X101600000Y-97790000D03*
X99060000Y-97790000D03*
X96520000Y-97790000D03*
X96520000Y-95250000D03*
X96520000Y-92710000D03*
X93980000Y-92710000D03*
X93980000Y-95250000D03*
X93980000Y-97790000D03*
X91440000Y-97790000D03*
X91440000Y-95250000D03*
X91440000Y-92710000D03*
X91440000Y-90170000D03*
X93980000Y-90170000D03*
X96520000Y-90170000D03*
X99060000Y-90170000D03*
X101600000Y-90170000D03*
X104140000Y-90170000D03*
X104140000Y-92710000D03*
X104140000Y-95250000D03*
X104140000Y-97790000D03*
X104140000Y-100330000D03*
X101600000Y-100330000D03*
X99060000Y-100330000D03*
X99060000Y-100330000D03*
X96520000Y-100330000D03*
X93980000Y-100330000D03*
X91440000Y-100330000D03*
D37*
X145199000Y-130645000D02*
X135096000Y-130645000D01*
X147320000Y-121920000D02*
X147320000Y-128524000D01*
X147320000Y-128524000D02*
X145199000Y-130645000D01*
D38*
X85344000Y-100965000D02*
X85344000Y-98971000D01*
X76708000Y-102108000D02*
X84201000Y-102108000D01*
X85344000Y-98971000D02*
X85411000Y-98904000D01*
X84201000Y-102108000D02*
X85344000Y-100965000D01*
D39*
X103805000Y-74930000D02*
X107765000Y-74930000D01*
D38*
X137668000Y-94421000D02*
X137668000Y-85271000D01*
X141068000Y-88671000D02*
X137668000Y-85271000D01*
X141068000Y-94421000D02*
X141068000Y-88671000D01*
X85411000Y-95504000D02*
X94561000Y-95504000D01*
X135255000Y-112395000D02*
X132715000Y-112395000D01*
X137668000Y-94421000D02*
X137668000Y-109982000D01*
X137668000Y-109982000D02*
X135255000Y-112395000D01*
X91161000Y-98904000D02*
X94561000Y-95504000D01*
X85411000Y-98904000D02*
X91161000Y-98904000D01*
D40*
X85297000Y-119554000D02*
X86868000Y-119554000D01*
X84709000Y-120142000D02*
X85297000Y-119554000D01*
X84709000Y-124206000D02*
X84709000Y-120142000D01*
X82296000Y-124841000D02*
X84074000Y-124841000D01*
X84074000Y-124841000D02*
X84709000Y-124206000D01*
X86868000Y-119554000D02*
X89107000Y-119554000D01*
X90170000Y-118491000D02*
X92710000Y-118491000D01*
X89107000Y-119554000D02*
X90170000Y-118491000D01*
X86788000Y-127381000D02*
X86868000Y-127301000D01*
X82296000Y-127381000D02*
X86788000Y-127381000D01*
X90497000Y-123371000D02*
X92710000Y-123371000D01*
X90170000Y-123698000D02*
X90497000Y-123371000D01*
X90170000Y-126619000D02*
X90170000Y-123698000D01*
X86868000Y-127301000D02*
X89488000Y-127301000D01*
X89488000Y-127301000D02*
X90170000Y-126619000D01*
D37*
X132588000Y-130613000D02*
X132556000Y-130645000D01*
X132588000Y-124079000D02*
X132588000Y-130613000D01*
D41*
X136652000Y-124079000D02*
X132588000Y-124079000D01*
X138557000Y-122174000D02*
X136652000Y-124079000D01*
X138557000Y-115824000D02*
X138557000Y-122174000D01*
X143256000Y-113919000D02*
X140462000Y-113919000D01*
X140462000Y-113919000D02*
X138557000Y-115824000D01*
X150622000Y-102235000D02*
X148209000Y-99822000D01*
X150622000Y-106680000D02*
X150622000Y-102235000D01*
X143256000Y-113919000D02*
X143383000Y-113919000D01*
X143383000Y-113919000D02*
X150622000Y-106680000D01*
D37*
X120485000Y-121920000D02*
X123190000Y-121920000D01*
X118110000Y-119545000D02*
X120485000Y-121920000D01*
X118110000Y-109450000D02*
X118110000Y-119545000D01*
X130429000Y-121920000D02*
X132588000Y-124079000D01*
X123190000Y-121920000D02*
X130429000Y-121920000D01*
D41*
X143209000Y-103712000D02*
X143256000Y-103759000D01*
X143209000Y-99822000D02*
X143209000Y-103712000D01*
X143256000Y-103759000D02*
X148336000Y-103759000D01*
X139368000Y-98347000D02*
X139368000Y-94421000D01*
X143209000Y-99822000D02*
X140843000Y-99822000D01*
X140843000Y-99822000D02*
X139368000Y-98347000D01*
D39*
X99845000Y-74930000D02*
X95885000Y-74930000D01*
X114570000Y-82550000D02*
X118745000Y-82550000D01*
X102240000Y-82550000D02*
X114570000Y-82550000D01*
X99845000Y-80155000D02*
X102240000Y-82550000D01*
X99845000Y-74930000D02*
X99845000Y-80155000D01*
D38*
X130616000Y-94421000D02*
X134268000Y-94421000D01*
X127635000Y-84455000D02*
X127635000Y-91440000D01*
X118745000Y-82550000D02*
X125730000Y-82550000D01*
X127635000Y-91440000D02*
X130616000Y-94421000D01*
X125730000Y-82550000D02*
X127635000Y-84455000D01*
X82550000Y-85725000D02*
X82550000Y-81280000D01*
X85411000Y-92104000D02*
X85411000Y-88586000D01*
X85411000Y-88586000D02*
X82550000Y-85725000D01*
D39*
X85725000Y-74930000D02*
X95885000Y-74930000D01*
X82550000Y-81280000D02*
X82550000Y-78105000D01*
X82550000Y-78105000D02*
X85725000Y-74930000D01*
D41*
X75819000Y-107442000D02*
X77089000Y-108712000D01*
X76111000Y-127381000D02*
X74676000Y-127381000D01*
X77089000Y-126403000D02*
X76111000Y-127381000D01*
X77089000Y-108712000D02*
X77089000Y-126403000D01*
X73279000Y-127381000D02*
X74676000Y-127381000D01*
X71040000Y-126619000D02*
X72517000Y-126619000D01*
X72517000Y-126619000D02*
X73279000Y-127381000D01*
X75438000Y-107442000D02*
X75819000Y-107442000D01*
X83820000Y-132461000D02*
X85344000Y-130937000D01*
X82296000Y-132461000D02*
X83820000Y-132461000D01*
X86868000Y-108077000D02*
X86233000Y-107442000D01*
X86233000Y-107442000D02*
X75438000Y-107442000D01*
X88011000Y-111633000D02*
X86868000Y-110490000D01*
X94742000Y-111633000D02*
X88011000Y-111633000D01*
X87249000Y-129032000D02*
X95250000Y-129032000D01*
X95250000Y-129032000D02*
X97155000Y-127127000D01*
X85344000Y-130937000D02*
X87249000Y-129032000D01*
X86868000Y-110490000D02*
X86868000Y-108077000D01*
X97155000Y-127127000D02*
X97155000Y-114046000D01*
X97155000Y-114046000D02*
X94742000Y-111633000D01*
X85344000Y-131064000D02*
X85344000Y-130937000D01*
X87122000Y-132842000D02*
X85344000Y-131064000D01*
X92075000Y-134747000D02*
X90170000Y-132842000D01*
X90170000Y-132842000D02*
X87122000Y-132842000D01*
D40*
X92075000Y-145923000D02*
X92075000Y-145695051D01*
D41*
X92075000Y-145923000D02*
X93726000Y-147574000D01*
X92075000Y-134747000D02*
X92075000Y-145923000D01*
D39*
X55372000Y-107442000D02*
X55372000Y-103482000D01*
X64309000Y-107442000D02*
X55372000Y-107442000D01*
X69262000Y-102489000D02*
X64309000Y-107442000D01*
D38*
X73406000Y-98679000D02*
X73406000Y-101219000D01*
X72136000Y-102489000D02*
X69262000Y-102489000D01*
X85411000Y-97204000D02*
X74881000Y-97204000D01*
X73406000Y-101219000D02*
X72136000Y-102489000D01*
X74881000Y-97204000D02*
X73406000Y-98679000D01*
D41*
X74549000Y-107442000D02*
X75438000Y-107442000D01*
X72136000Y-102489000D02*
X73279000Y-103632000D01*
X73279000Y-106172000D02*
X74549000Y-107442000D01*
X73279000Y-103632000D02*
X73279000Y-106172000D01*
D39*
X55245000Y-88265000D02*
X55245000Y-80415000D01*
X57150000Y-90170000D02*
X55245000Y-88265000D01*
X69262000Y-102489000D02*
X69215000Y-102442000D01*
X69215000Y-102442000D02*
X69215000Y-92545000D01*
X69215000Y-92545000D02*
X66840000Y-90170000D01*
X66840000Y-90170000D02*
X57150000Y-90170000D01*
D38*
X135185000Y-99695000D02*
X132715000Y-99695000D01*
X135968000Y-98912000D02*
X135185000Y-99695000D01*
X135968000Y-94421000D02*
X135968000Y-98912000D01*
D37*
X126135000Y-93750000D02*
X118110000Y-93750000D01*
X132715000Y-99695000D02*
X132080000Y-99695000D01*
X132080000Y-99695000D02*
X126135000Y-93750000D01*
D38*
X76708000Y-92456000D02*
X76708000Y-89408000D01*
X85411000Y-93804000D02*
X78056000Y-93804000D01*
X78056000Y-93804000D02*
X76708000Y-92456000D01*
D39*
X76708000Y-85368000D02*
X76708000Y-89408000D01*
X71350000Y-80010000D02*
X76708000Y-85368000D01*
D40*
X81115000Y-140081000D02*
X82296000Y-140081000D01*
X80391000Y-140805000D02*
X81115000Y-140081000D01*
X57658000Y-147447000D02*
X61722000Y-151511000D01*
X57658000Y-137795000D02*
X57658000Y-147447000D01*
X61722000Y-151511000D02*
X78867000Y-151511000D01*
X80391000Y-149987000D02*
X80391000Y-140805000D01*
X78867000Y-151511000D02*
X80391000Y-149987000D01*
X87757000Y-138557000D02*
X86741000Y-137541000D01*
X55118000Y-146939000D02*
X60706000Y-152527000D01*
X55118000Y-137795000D02*
X55118000Y-146939000D01*
X86741000Y-137541000D02*
X82296000Y-137541000D01*
X60706000Y-152527000D02*
X86741000Y-152527000D01*
X87757000Y-151511000D02*
X87757000Y-138557000D01*
X86741000Y-152527000D02*
X87757000Y-151511000D01*
X86487000Y-135001000D02*
X83477000Y-135001000D01*
X89281000Y-137795000D02*
X86487000Y-135001000D01*
X89281000Y-152146000D02*
X89281000Y-137795000D01*
X56388000Y-136525000D02*
X54102000Y-136525000D01*
X59563000Y-153670000D02*
X87757000Y-153670000D01*
X57658000Y-135255000D02*
X56388000Y-136525000D01*
X83477000Y-135001000D02*
X82296000Y-135001000D01*
X54102000Y-136525000D02*
X53467000Y-137160000D01*
X87757000Y-153670000D02*
X89281000Y-152146000D01*
X53467000Y-147574000D02*
X59563000Y-153670000D01*
X53467000Y-137160000D02*
X53467000Y-147574000D01*
X79502000Y-123317000D02*
X80518000Y-122301000D01*
X79502000Y-149098000D02*
X79502000Y-123317000D01*
X78105000Y-150495000D02*
X79502000Y-149098000D01*
X80518000Y-122301000D02*
X82296000Y-122301000D01*
X59055000Y-132715000D02*
X59563000Y-133223000D01*
X57658000Y-132715000D02*
X59055000Y-132715000D01*
X59563000Y-133223000D02*
X59563000Y-147066000D01*
X59563000Y-147066000D02*
X62992000Y-150495000D01*
X62992000Y-150495000D02*
X78105000Y-150495000D01*
X83820000Y-123063000D02*
X83820000Y-120142000D01*
X83820000Y-120142000D02*
X83439000Y-119761000D01*
X83312000Y-123571000D02*
X83820000Y-123063000D01*
X81026000Y-123571000D02*
X83312000Y-123571000D01*
X80391000Y-124206000D02*
X81026000Y-123571000D01*
X58674000Y-154813000D02*
X89281000Y-154813000D01*
X53213000Y-132715000D02*
X52197000Y-133731000D01*
X52197000Y-133731000D02*
X52197000Y-148336000D01*
X55118000Y-132715000D02*
X53213000Y-132715000D01*
X89281000Y-154813000D02*
X90678000Y-153416000D01*
X90678000Y-136779000D02*
X87630000Y-133731000D01*
X52197000Y-148336000D02*
X58674000Y-154813000D01*
X90678000Y-153416000D02*
X90678000Y-136779000D01*
X87630000Y-133731000D02*
X80772000Y-133731000D01*
X83439000Y-119761000D02*
X82296000Y-119761000D01*
X80772000Y-133731000D02*
X80391000Y-133350000D01*
X80391000Y-133350000D02*
X80391000Y-124206000D01*
X79502000Y-117221000D02*
X82296000Y-117221000D01*
X78486000Y-118237000D02*
X79502000Y-117221000D01*
X76835000Y-149479000D02*
X78486000Y-147828000D01*
X59309000Y-130175000D02*
X60579000Y-131445000D01*
X78486000Y-147828000D02*
X78486000Y-118237000D01*
X57658000Y-130175000D02*
X59309000Y-130175000D01*
X60579000Y-131445000D02*
X60579000Y-145923000D01*
X60579000Y-145923000D02*
X64135000Y-149479000D01*
X64135000Y-149479000D02*
X76835000Y-149479000D01*
X73495000Y-135001000D02*
X74676000Y-135001000D01*
X62484000Y-133604000D02*
X63881000Y-135001000D01*
X60325000Y-127635000D02*
X62484000Y-129794000D01*
X57658000Y-127635000D02*
X60325000Y-127635000D01*
X62484000Y-129794000D02*
X62484000Y-133604000D01*
X63881000Y-135001000D02*
X73495000Y-135001000D01*
X75819000Y-133731000D02*
X76454000Y-134366000D01*
X76454000Y-136944000D02*
X75857000Y-137541000D01*
X56388000Y-126365000D02*
X60706000Y-126365000D01*
X76454000Y-134366000D02*
X76454000Y-136944000D01*
X60706000Y-126365000D02*
X63246000Y-128905000D01*
X75857000Y-137541000D02*
X74676000Y-137541000D01*
X63246000Y-132588000D02*
X64389000Y-133731000D01*
X64389000Y-133731000D02*
X75819000Y-133731000D01*
X55118000Y-127635000D02*
X56388000Y-126365000D01*
X63246000Y-128905000D02*
X63246000Y-132588000D01*
X77470000Y-139192000D02*
X76581000Y-140081000D01*
X77470000Y-132207000D02*
X77470000Y-139192000D01*
X76454000Y-131191000D02*
X77470000Y-132207000D01*
X76581000Y-140081000D02*
X74676000Y-140081000D01*
X72136000Y-132461000D02*
X73406000Y-131191000D01*
X61849000Y-125095000D02*
X64008000Y-127254000D01*
X57658000Y-125095000D02*
X61849000Y-125095000D01*
X64008000Y-127254000D02*
X64008000Y-131572000D01*
X73406000Y-131191000D02*
X76454000Y-131191000D01*
X64897000Y-132461000D02*
X72136000Y-132461000D01*
X64008000Y-131572000D02*
X64897000Y-132461000D01*
X53873400Y-125095000D02*
X55118000Y-125095000D01*
X52959000Y-128143000D02*
X52959000Y-126009400D01*
X53721000Y-128905000D02*
X52959000Y-128143000D01*
X52959000Y-126009400D02*
X53873400Y-125095000D01*
X61595000Y-141097000D02*
X61595000Y-130619500D01*
X61595000Y-130619500D02*
X59880500Y-128905000D01*
X63119000Y-142621000D02*
X61595000Y-141097000D01*
X74676000Y-142621000D02*
X63119000Y-142621000D01*
X59880500Y-128905000D02*
X53721000Y-128905000D01*
X70993000Y-119761000D02*
X74676000Y-119761000D01*
X70358000Y-120396000D02*
X70993000Y-119761000D01*
X70358000Y-121793000D02*
X70358000Y-120396000D01*
X57658000Y-122555000D02*
X69596000Y-122555000D01*
X69596000Y-122555000D02*
X70358000Y-121793000D01*
X68326000Y-117221000D02*
X74676000Y-117221000D01*
X67437000Y-118110000D02*
X68326000Y-117221000D01*
X55218000Y-122555000D02*
X56488000Y-121285000D01*
X55118000Y-122555000D02*
X55218000Y-122555000D01*
X67437000Y-120523000D02*
X67437000Y-118110000D01*
X56488000Y-121285000D02*
X66675000Y-121285000D01*
X66675000Y-121285000D02*
X67437000Y-120523000D01*
X73495000Y-114681000D02*
X74676000Y-114681000D01*
X62611000Y-120015000D02*
X63500000Y-119126000D01*
X63500000Y-115570000D02*
X64389000Y-114681000D01*
X57658000Y-120015000D02*
X62611000Y-120015000D01*
X63500000Y-119126000D02*
X63500000Y-115570000D01*
X64389000Y-114681000D02*
X73495000Y-114681000D01*
X83693000Y-142621000D02*
X84328000Y-141986000D01*
X84328000Y-141986000D02*
X84328000Y-140335000D01*
X82296000Y-142621000D02*
X83693000Y-142621000D01*
X84328000Y-140335000D02*
X84963000Y-139700000D01*
X84963000Y-139700000D02*
X86106000Y-139700000D01*
X94715949Y-139700000D02*
X97917000Y-139700000D01*
X93726000Y-139700000D02*
X94715949Y-139700000D01*
X127476000Y-129254000D02*
X127476000Y-130645000D01*
X126365000Y-128143000D02*
X127476000Y-129254000D01*
X99568000Y-139700000D02*
X100965000Y-138303000D01*
X97917000Y-139700000D02*
X99568000Y-139700000D01*
X100965000Y-138303000D02*
X100965000Y-129413000D01*
X100965000Y-129413000D02*
X102235000Y-128143000D01*
X102235000Y-128143000D02*
X126365000Y-128143000D01*
X124936000Y-141764000D02*
X124936000Y-130645000D01*
X93726000Y-143383000D02*
X123317000Y-143383000D01*
X123317000Y-143383000D02*
X124936000Y-141764000D01*
X84328000Y-145161000D02*
X82296000Y-145161000D01*
X86106000Y-143383000D02*
X84328000Y-145161000D01*
X82296000Y-113600000D02*
X82296000Y-109093000D01*
X82296000Y-114681000D02*
X82296000Y-113600000D01*
D41*
X73025000Y-129921000D02*
X74676000Y-129921000D01*
X72517000Y-130429000D02*
X73025000Y-129921000D01*
X70993000Y-130429000D02*
X72517000Y-130429000D01*
D40*
X85979000Y-147701000D02*
X86106000Y-147574000D01*
X83477000Y-147701000D02*
X86106000Y-147701000D01*
X82296000Y-147701000D02*
X83477000Y-147701000D01*
X130016000Y-128746000D02*
X130016000Y-130645000D01*
X127762000Y-126492000D02*
X130016000Y-128746000D01*
X96774000Y-109093000D02*
X99060000Y-111379000D01*
X99060000Y-111379000D02*
X99060000Y-124460000D01*
X89916000Y-109093000D02*
X96774000Y-109093000D01*
X101092000Y-126492000D02*
X127762000Y-126492000D01*
X99060000Y-124460000D02*
X101092000Y-126492000D01*
D42*
G36*
X68453000Y-87503000D02*
G01*
X58547000Y-87503000D01*
X58547000Y-72517000D01*
X68453000Y-72517000D01*
X68453000Y-87503000D01*
G37*
X68453000Y-87503000D02*
X58547000Y-87503000D01*
X58547000Y-72517000D01*
X68453000Y-72517000D01*
X68453000Y-87503000D01*
G36*
X125603000Y-106553000D02*
G01*
X110617000Y-106553000D01*
X110617000Y-96647000D01*
X125603000Y-96647000D01*
X125603000Y-106553000D01*
G37*
X125603000Y-106553000D02*
X110617000Y-106553000D01*
X110617000Y-96647000D01*
X125603000Y-96647000D01*
X125603000Y-106553000D01*
M02*
