G04 #@! TF.GenerationSoftware,KiCad,Pcbnew,(5.1.5)-3*
G04 #@! TF.CreationDate,2020-01-23T23:18:57+02:00*
G04 #@! TF.ProjectId,TrafficSignPCB,54726166-6669-4635-9369-676e5043422e,rev?*
G04 #@! TF.SameCoordinates,Original*
G04 #@! TF.FileFunction,Legend,Top*
G04 #@! TF.FilePolarity,Positive*
%FSLAX46Y46*%
G04 Gerber Fmt 4.6, Leading zero omitted, Abs format (unit mm)*
G04 Created by KiCad (PCBNEW (5.1.5)-3) date 2020-01-23 23:18:57*
%MOMM*%
%LPD*%
G04 APERTURE LIST*
%ADD10C,0.150000*%
%ADD11C,0.120000*%
%ADD12C,0.010000*%
%ADD13C,0.125000*%
G04 APERTURE END LIST*
D10*
X156900619Y-107204380D02*
X156900619Y-107394857D01*
X156948238Y-107490095D01*
X156995857Y-107537714D01*
X157138714Y-107632952D01*
X157329190Y-107680571D01*
X157710142Y-107680571D01*
X157805380Y-107632952D01*
X157853000Y-107585333D01*
X157900619Y-107490095D01*
X157900619Y-107299619D01*
X157853000Y-107204380D01*
X157805380Y-107156761D01*
X157710142Y-107109142D01*
X157472047Y-107109142D01*
X157376809Y-107156761D01*
X157329190Y-107204380D01*
X157281571Y-107299619D01*
X157281571Y-107490095D01*
X157329190Y-107585333D01*
X157376809Y-107632952D01*
X157472047Y-107680571D01*
X157900619Y-108299619D02*
X157900619Y-108394857D01*
X157853000Y-108490095D01*
X157805380Y-108537714D01*
X157710142Y-108585333D01*
X157519666Y-108632952D01*
X157281571Y-108632952D01*
X157091095Y-108585333D01*
X156995857Y-108537714D01*
X156948238Y-108490095D01*
X156900619Y-108394857D01*
X156900619Y-108299619D01*
X156948238Y-108204380D01*
X156995857Y-108156761D01*
X157091095Y-108109142D01*
X157281571Y-108061523D01*
X157519666Y-108061523D01*
X157710142Y-108109142D01*
X157805380Y-108156761D01*
X157853000Y-108204380D01*
X157900619Y-108299619D01*
X156995857Y-109061523D02*
X156948238Y-109109142D01*
X156900619Y-109061523D01*
X156948238Y-109013904D01*
X156995857Y-109061523D01*
X156900619Y-109061523D01*
X157567285Y-109966285D02*
X156900619Y-109966285D01*
X157948238Y-109728190D02*
X157233952Y-109490095D01*
X157233952Y-110109142D01*
X157805380Y-110442476D02*
X157853000Y-110490095D01*
X157900619Y-110585333D01*
X157900619Y-110823428D01*
X157853000Y-110918666D01*
X157805380Y-110966285D01*
X157710142Y-111013904D01*
X157614904Y-111013904D01*
X157472047Y-110966285D01*
X156900619Y-110394857D01*
X156900619Y-111013904D01*
X157567285Y-111871047D02*
X156900619Y-111871047D01*
X157948238Y-111632952D02*
X157233952Y-111394857D01*
X157233952Y-112013904D01*
X156900619Y-113156761D02*
X157567285Y-113156761D01*
X157472047Y-113156761D02*
X157519666Y-113204380D01*
X157567285Y-113299619D01*
X157567285Y-113442476D01*
X157519666Y-113537714D01*
X157424428Y-113585333D01*
X156900619Y-113585333D01*
X157424428Y-113585333D02*
X157519666Y-113632952D01*
X157567285Y-113728190D01*
X157567285Y-113871047D01*
X157519666Y-113966285D01*
X157424428Y-114013904D01*
X156900619Y-114013904D01*
X156900619Y-114490095D02*
X157567285Y-114490095D01*
X157472047Y-114490095D02*
X157519666Y-114537714D01*
X157567285Y-114632952D01*
X157567285Y-114775809D01*
X157519666Y-114871047D01*
X157424428Y-114918666D01*
X156900619Y-114918666D01*
X157424428Y-114918666D02*
X157519666Y-114966285D01*
X157567285Y-115061523D01*
X157567285Y-115204380D01*
X157519666Y-115299619D01*
X157424428Y-115347238D01*
X156900619Y-115347238D01*
D11*
X156083000Y-66040000D02*
X156083000Y-156464000D01*
X153670000Y-66040000D02*
X156669421Y-66040000D01*
X153670000Y-156464000D02*
X156669421Y-156464000D01*
X156083000Y-156464000D02*
X155496579Y-155337496D01*
X156083000Y-156464000D02*
X156669421Y-155337496D01*
X156083000Y-66040000D02*
X155496579Y-67166504D01*
X156083000Y-66040000D02*
X156669421Y-67166504D01*
D10*
X96282380Y-63571380D02*
X95710952Y-63571380D01*
X95996666Y-63571380D02*
X95996666Y-62571380D01*
X95901428Y-62714238D01*
X95806190Y-62809476D01*
X95710952Y-62857095D01*
X96901428Y-62571380D02*
X96996666Y-62571380D01*
X97091904Y-62619000D01*
X97139523Y-62666619D01*
X97187142Y-62761857D01*
X97234761Y-62952333D01*
X97234761Y-63190428D01*
X97187142Y-63380904D01*
X97139523Y-63476142D01*
X97091904Y-63523761D01*
X96996666Y-63571380D01*
X96901428Y-63571380D01*
X96806190Y-63523761D01*
X96758571Y-63476142D01*
X96710952Y-63380904D01*
X96663333Y-63190428D01*
X96663333Y-62952333D01*
X96710952Y-62761857D01*
X96758571Y-62666619D01*
X96806190Y-62619000D01*
X96901428Y-62571380D01*
X98091904Y-62571380D02*
X97901428Y-62571380D01*
X97806190Y-62619000D01*
X97758571Y-62666619D01*
X97663333Y-62809476D01*
X97615714Y-62999952D01*
X97615714Y-63380904D01*
X97663333Y-63476142D01*
X97710952Y-63523761D01*
X97806190Y-63571380D01*
X97996666Y-63571380D01*
X98091904Y-63523761D01*
X98139523Y-63476142D01*
X98187142Y-63380904D01*
X98187142Y-63142809D01*
X98139523Y-63047571D01*
X98091904Y-62999952D01*
X97996666Y-62952333D01*
X97806190Y-62952333D01*
X97710952Y-62999952D01*
X97663333Y-63047571D01*
X97615714Y-63142809D01*
X98615714Y-63476142D02*
X98663333Y-63523761D01*
X98615714Y-63571380D01*
X98568095Y-63523761D01*
X98615714Y-63476142D01*
X98615714Y-63571380D01*
X99520476Y-62571380D02*
X99330000Y-62571380D01*
X99234761Y-62619000D01*
X99187142Y-62666619D01*
X99091904Y-62809476D01*
X99044285Y-62999952D01*
X99044285Y-63380904D01*
X99091904Y-63476142D01*
X99139523Y-63523761D01*
X99234761Y-63571380D01*
X99425238Y-63571380D01*
X99520476Y-63523761D01*
X99568095Y-63476142D01*
X99615714Y-63380904D01*
X99615714Y-63142809D01*
X99568095Y-63047571D01*
X99520476Y-62999952D01*
X99425238Y-62952333D01*
X99234761Y-62952333D01*
X99139523Y-62999952D01*
X99091904Y-63047571D01*
X99044285Y-63142809D01*
X100187142Y-62999952D02*
X100091904Y-62952333D01*
X100044285Y-62904714D01*
X99996666Y-62809476D01*
X99996666Y-62761857D01*
X100044285Y-62666619D01*
X100091904Y-62619000D01*
X100187142Y-62571380D01*
X100377619Y-62571380D01*
X100472857Y-62619000D01*
X100520476Y-62666619D01*
X100568095Y-62761857D01*
X100568095Y-62809476D01*
X100520476Y-62904714D01*
X100472857Y-62952333D01*
X100377619Y-62999952D01*
X100187142Y-62999952D01*
X100091904Y-63047571D01*
X100044285Y-63095190D01*
X99996666Y-63190428D01*
X99996666Y-63380904D01*
X100044285Y-63476142D01*
X100091904Y-63523761D01*
X100187142Y-63571380D01*
X100377619Y-63571380D01*
X100472857Y-63523761D01*
X100520476Y-63476142D01*
X100568095Y-63380904D01*
X100568095Y-63190428D01*
X100520476Y-63095190D01*
X100472857Y-63047571D01*
X100377619Y-62999952D01*
X101187142Y-62571380D02*
X101282380Y-62571380D01*
X101377619Y-62619000D01*
X101425238Y-62666619D01*
X101472857Y-62761857D01*
X101520476Y-62952333D01*
X101520476Y-63190428D01*
X101472857Y-63380904D01*
X101425238Y-63476142D01*
X101377619Y-63523761D01*
X101282380Y-63571380D01*
X101187142Y-63571380D01*
X101091904Y-63523761D01*
X101044285Y-63476142D01*
X100996666Y-63380904D01*
X100949047Y-63190428D01*
X100949047Y-62952333D01*
X100996666Y-62761857D01*
X101044285Y-62666619D01*
X101091904Y-62619000D01*
X101187142Y-62571380D01*
X102710952Y-63571380D02*
X102710952Y-62904714D01*
X102710952Y-62999952D02*
X102758571Y-62952333D01*
X102853809Y-62904714D01*
X102996666Y-62904714D01*
X103091904Y-62952333D01*
X103139523Y-63047571D01*
X103139523Y-63571380D01*
X103139523Y-63047571D02*
X103187142Y-62952333D01*
X103282380Y-62904714D01*
X103425238Y-62904714D01*
X103520476Y-62952333D01*
X103568095Y-63047571D01*
X103568095Y-63571380D01*
X104044285Y-63571380D02*
X104044285Y-62904714D01*
X104044285Y-62999952D02*
X104091904Y-62952333D01*
X104187142Y-62904714D01*
X104330000Y-62904714D01*
X104425238Y-62952333D01*
X104472857Y-63047571D01*
X104472857Y-63571380D01*
X104472857Y-63047571D02*
X104520476Y-62952333D01*
X104615714Y-62904714D01*
X104758571Y-62904714D01*
X104853809Y-62952333D01*
X104901428Y-63047571D01*
X104901428Y-63571380D01*
D11*
X46990000Y-64389000D02*
X153670000Y-64389000D01*
X46990000Y-66040000D02*
X46990000Y-63802579D01*
X153670000Y-66040000D02*
X153670000Y-63802579D01*
X153670000Y-64389000D02*
X152543496Y-64975421D01*
X153670000Y-64389000D02*
X152543496Y-63802579D01*
X46990000Y-64389000D02*
X48116504Y-64975421D01*
X46990000Y-64389000D02*
X48116504Y-63802579D01*
D10*
X140716000Y-128905000D02*
X117316000Y-128905000D01*
X117316000Y-128905000D02*
X117316000Y-153905000D01*
X117316000Y-153905000D02*
X140716000Y-153905000D01*
X140716000Y-153905000D02*
X140716000Y-128905000D01*
D11*
X64492000Y-101434000D02*
X64492000Y-101419000D01*
X64492000Y-103559000D02*
X64492000Y-103544000D01*
X69032000Y-101434000D02*
X69032000Y-101419000D01*
X69032000Y-103559000D02*
X69032000Y-103544000D01*
X69032000Y-101419000D02*
X64492000Y-101419000D01*
X69032000Y-103559000D02*
X64492000Y-103559000D01*
X88236000Y-99754000D02*
X87136000Y-99754000D01*
X88236000Y-100704000D02*
X88236000Y-99754000D01*
X89736000Y-100704000D02*
X88236000Y-100704000D01*
X88236000Y-91254000D02*
X83111000Y-91254000D01*
X88236000Y-90304000D02*
X88236000Y-91254000D01*
X89736000Y-90304000D02*
X88236000Y-90304000D01*
D12*
G36*
X103155750Y-151034750D02*
G01*
X105476386Y-151034750D01*
X105554318Y-150956818D01*
X105620229Y-150851905D01*
X105627499Y-150737634D01*
X105576126Y-150629003D01*
X105554318Y-150604681D01*
X105476386Y-150526750D01*
X103659717Y-150526750D01*
X103669671Y-149518687D01*
X103679625Y-148510625D01*
X103780412Y-148297877D01*
X103929084Y-148055775D01*
X104124279Y-147856264D01*
X104362412Y-147702928D01*
X104387627Y-147690662D01*
X104600375Y-147589875D01*
X106592687Y-147580596D01*
X108585000Y-147571317D01*
X108585000Y-149216594D01*
X108585172Y-149586231D01*
X108585790Y-149897577D01*
X108587010Y-150155839D01*
X108588985Y-150366227D01*
X108591868Y-150533948D01*
X108595815Y-150664210D01*
X108600980Y-150762221D01*
X108607515Y-150833190D01*
X108615576Y-150882325D01*
X108625317Y-150914833D01*
X108635829Y-150934439D01*
X108727269Y-151018273D01*
X108838512Y-151048155D01*
X108923725Y-151032715D01*
X108959909Y-151018988D01*
X108990462Y-151004164D01*
X109015864Y-150983119D01*
X109036592Y-150950726D01*
X109053127Y-150901860D01*
X109065948Y-150831393D01*
X109075534Y-150734202D01*
X109082363Y-150605158D01*
X109086917Y-150439137D01*
X109089673Y-150231013D01*
X109091111Y-149975659D01*
X109091710Y-149667950D01*
X109091949Y-149302759D01*
X109091990Y-149232937D01*
X109093000Y-147574000D01*
X110299500Y-147574000D01*
X110299500Y-152749250D01*
X111474250Y-152749250D01*
X111778652Y-152749128D01*
X112025913Y-152748548D01*
X112222393Y-152747181D01*
X112374449Y-152744702D01*
X112488441Y-152740786D01*
X112570728Y-152735106D01*
X112627669Y-152727335D01*
X112665622Y-152717148D01*
X112690947Y-152704219D01*
X112710002Y-152688221D01*
X112712500Y-152685750D01*
X112763580Y-152594104D01*
X112772793Y-152480101D01*
X112739935Y-152369306D01*
X112715344Y-152332079D01*
X112654689Y-152257125D01*
X110836763Y-152238449D01*
X110855125Y-150193375D01*
X110940474Y-150011263D01*
X111065803Y-149808900D01*
X111237754Y-149624411D01*
X111439460Y-149474667D01*
X111522280Y-149429457D01*
X111712375Y-149336125D01*
X112863312Y-149326709D01*
X114014250Y-149317293D01*
X114014250Y-150526750D01*
X113127020Y-150526750D01*
X112866754Y-150526854D01*
X112662374Y-150527556D01*
X112506265Y-150529437D01*
X112390814Y-150533078D01*
X112308406Y-150539060D01*
X112251428Y-150547965D01*
X112212264Y-150560375D01*
X112183300Y-150576870D01*
X112156923Y-150598032D01*
X112153353Y-150601100D01*
X112084258Y-150688535D01*
X112066916Y-150780750D01*
X112089902Y-150884695D01*
X112153353Y-150960399D01*
X112179923Y-150982182D01*
X112208105Y-150999231D01*
X112245503Y-151012127D01*
X112299725Y-151021449D01*
X112378375Y-151027777D01*
X112489061Y-151031691D01*
X112639387Y-151033772D01*
X112836960Y-151034598D01*
X113089385Y-151034749D01*
X113128649Y-151034750D01*
X114017508Y-151034750D01*
X114007941Y-152059469D01*
X113998375Y-153084188D01*
X113895189Y-153293673D01*
X113751161Y-153520121D01*
X113560501Y-153706596D01*
X113319402Y-153856729D01*
X113289702Y-153871151D01*
X113077625Y-153971625D01*
X111085312Y-153980903D01*
X109093000Y-153990182D01*
X109093000Y-152026508D01*
X108688187Y-152012846D01*
X108513797Y-152005716D01*
X108386749Y-151996159D01*
X108290889Y-151981325D01*
X108210060Y-151958365D01*
X108128107Y-151924429D01*
X108092875Y-151907855D01*
X107900233Y-151788956D01*
X107718705Y-151628682D01*
X107566803Y-151445482D01*
X107480196Y-151297267D01*
X107394375Y-151114125D01*
X107384626Y-149963187D01*
X107374877Y-148812250D01*
X105033608Y-148812250D01*
X104967804Y-148895906D01*
X104910670Y-149005745D01*
X104916417Y-149113208D01*
X104978584Y-149215292D01*
X105055168Y-149304375D01*
X105962834Y-149313706D01*
X106870500Y-149323038D01*
X106870500Y-150235723D01*
X106869560Y-150541006D01*
X106866071Y-150790892D01*
X106859028Y-150993465D01*
X106847425Y-151156810D01*
X106830257Y-151289010D01*
X106806518Y-151398149D01*
X106775203Y-151492312D01*
X106735307Y-151579584D01*
X106694123Y-151654000D01*
X106564312Y-151826911D01*
X106391836Y-151986687D01*
X106197319Y-152115014D01*
X106145810Y-152140907D01*
X105965625Y-152225375D01*
X101949249Y-152242629D01*
X101949250Y-149654314D01*
X101949250Y-147066000D01*
X100797439Y-147065999D01*
X100481894Y-147066168D01*
X100223711Y-147067218D01*
X100016753Y-147069968D01*
X99854882Y-147075235D01*
X99731962Y-147083838D01*
X99641854Y-147096595D01*
X99578421Y-147114323D01*
X99535525Y-147137841D01*
X99507030Y-147167966D01*
X99486797Y-147205516D01*
X99471983Y-147242641D01*
X99461881Y-147338103D01*
X99488013Y-147440760D01*
X99541119Y-147522032D01*
X99569252Y-147542920D01*
X99617178Y-147551701D01*
X99721658Y-147559338D01*
X99875750Y-147565609D01*
X100072515Y-147570289D01*
X100305013Y-147573155D01*
X100534287Y-147574000D01*
X101441250Y-147574000D01*
X101441250Y-148812250D01*
X100534287Y-148812250D01*
X100283918Y-148813302D01*
X100059311Y-148816300D01*
X99868040Y-148821002D01*
X99717680Y-148827171D01*
X99615803Y-148834564D01*
X99570267Y-148842786D01*
X99496948Y-148914441D01*
X99460210Y-149016997D01*
X99467767Y-149124795D01*
X99477818Y-149150261D01*
X99503168Y-149197353D01*
X99533794Y-149234796D01*
X99576765Y-149263698D01*
X99639155Y-149285164D01*
X99728033Y-149300303D01*
X99850471Y-149310222D01*
X100013540Y-149316027D01*
X100224313Y-149318826D01*
X100489860Y-149319726D01*
X100560562Y-149319781D01*
X101442000Y-149320250D01*
X101421454Y-149455187D01*
X101349768Y-149733615D01*
X101225185Y-149977076D01*
X101048377Y-150184697D01*
X100820018Y-150355606D01*
X100663375Y-150437954D01*
X100619739Y-150457152D01*
X100576291Y-150472721D01*
X100526013Y-150485110D01*
X100461889Y-150494767D01*
X100376901Y-150502140D01*
X100264032Y-150507678D01*
X100116265Y-150511828D01*
X99926583Y-150515039D01*
X99687969Y-150517759D01*
X99393405Y-150520435D01*
X99368595Y-150520649D01*
X98232566Y-150530423D01*
X98241470Y-148646684D01*
X98250375Y-146762944D01*
X98353285Y-146553950D01*
X98498091Y-146327790D01*
X98689623Y-146132599D01*
X98913626Y-145982371D01*
X98957826Y-145960466D01*
X99139375Y-145875375D01*
X101147562Y-145866528D01*
X103155750Y-145857682D01*
X103155750Y-151034750D01*
G37*
X103155750Y-151034750D02*
X105476386Y-151034750D01*
X105554318Y-150956818D01*
X105620229Y-150851905D01*
X105627499Y-150737634D01*
X105576126Y-150629003D01*
X105554318Y-150604681D01*
X105476386Y-150526750D01*
X103659717Y-150526750D01*
X103669671Y-149518687D01*
X103679625Y-148510625D01*
X103780412Y-148297877D01*
X103929084Y-148055775D01*
X104124279Y-147856264D01*
X104362412Y-147702928D01*
X104387627Y-147690662D01*
X104600375Y-147589875D01*
X106592687Y-147580596D01*
X108585000Y-147571317D01*
X108585000Y-149216594D01*
X108585172Y-149586231D01*
X108585790Y-149897577D01*
X108587010Y-150155839D01*
X108588985Y-150366227D01*
X108591868Y-150533948D01*
X108595815Y-150664210D01*
X108600980Y-150762221D01*
X108607515Y-150833190D01*
X108615576Y-150882325D01*
X108625317Y-150914833D01*
X108635829Y-150934439D01*
X108727269Y-151018273D01*
X108838512Y-151048155D01*
X108923725Y-151032715D01*
X108959909Y-151018988D01*
X108990462Y-151004164D01*
X109015864Y-150983119D01*
X109036592Y-150950726D01*
X109053127Y-150901860D01*
X109065948Y-150831393D01*
X109075534Y-150734202D01*
X109082363Y-150605158D01*
X109086917Y-150439137D01*
X109089673Y-150231013D01*
X109091111Y-149975659D01*
X109091710Y-149667950D01*
X109091949Y-149302759D01*
X109091990Y-149232937D01*
X109093000Y-147574000D01*
X110299500Y-147574000D01*
X110299500Y-152749250D01*
X111474250Y-152749250D01*
X111778652Y-152749128D01*
X112025913Y-152748548D01*
X112222393Y-152747181D01*
X112374449Y-152744702D01*
X112488441Y-152740786D01*
X112570728Y-152735106D01*
X112627669Y-152727335D01*
X112665622Y-152717148D01*
X112690947Y-152704219D01*
X112710002Y-152688221D01*
X112712500Y-152685750D01*
X112763580Y-152594104D01*
X112772793Y-152480101D01*
X112739935Y-152369306D01*
X112715344Y-152332079D01*
X112654689Y-152257125D01*
X110836763Y-152238449D01*
X110855125Y-150193375D01*
X110940474Y-150011263D01*
X111065803Y-149808900D01*
X111237754Y-149624411D01*
X111439460Y-149474667D01*
X111522280Y-149429457D01*
X111712375Y-149336125D01*
X112863312Y-149326709D01*
X114014250Y-149317293D01*
X114014250Y-150526750D01*
X113127020Y-150526750D01*
X112866754Y-150526854D01*
X112662374Y-150527556D01*
X112506265Y-150529437D01*
X112390814Y-150533078D01*
X112308406Y-150539060D01*
X112251428Y-150547965D01*
X112212264Y-150560375D01*
X112183300Y-150576870D01*
X112156923Y-150598032D01*
X112153353Y-150601100D01*
X112084258Y-150688535D01*
X112066916Y-150780750D01*
X112089902Y-150884695D01*
X112153353Y-150960399D01*
X112179923Y-150982182D01*
X112208105Y-150999231D01*
X112245503Y-151012127D01*
X112299725Y-151021449D01*
X112378375Y-151027777D01*
X112489061Y-151031691D01*
X112639387Y-151033772D01*
X112836960Y-151034598D01*
X113089385Y-151034749D01*
X113128649Y-151034750D01*
X114017508Y-151034750D01*
X114007941Y-152059469D01*
X113998375Y-153084188D01*
X113895189Y-153293673D01*
X113751161Y-153520121D01*
X113560501Y-153706596D01*
X113319402Y-153856729D01*
X113289702Y-153871151D01*
X113077625Y-153971625D01*
X111085312Y-153980903D01*
X109093000Y-153990182D01*
X109093000Y-152026508D01*
X108688187Y-152012846D01*
X108513797Y-152005716D01*
X108386749Y-151996159D01*
X108290889Y-151981325D01*
X108210060Y-151958365D01*
X108128107Y-151924429D01*
X108092875Y-151907855D01*
X107900233Y-151788956D01*
X107718705Y-151628682D01*
X107566803Y-151445482D01*
X107480196Y-151297267D01*
X107394375Y-151114125D01*
X107384626Y-149963187D01*
X107374877Y-148812250D01*
X105033608Y-148812250D01*
X104967804Y-148895906D01*
X104910670Y-149005745D01*
X104916417Y-149113208D01*
X104978584Y-149215292D01*
X105055168Y-149304375D01*
X105962834Y-149313706D01*
X106870500Y-149323038D01*
X106870500Y-150235723D01*
X106869560Y-150541006D01*
X106866071Y-150790892D01*
X106859028Y-150993465D01*
X106847425Y-151156810D01*
X106830257Y-151289010D01*
X106806518Y-151398149D01*
X106775203Y-151492312D01*
X106735307Y-151579584D01*
X106694123Y-151654000D01*
X106564312Y-151826911D01*
X106391836Y-151986687D01*
X106197319Y-152115014D01*
X106145810Y-152140907D01*
X105965625Y-152225375D01*
X101949249Y-152242629D01*
X101949250Y-149654314D01*
X101949250Y-147066000D01*
X100797439Y-147065999D01*
X100481894Y-147066168D01*
X100223711Y-147067218D01*
X100016753Y-147069968D01*
X99854882Y-147075235D01*
X99731962Y-147083838D01*
X99641854Y-147096595D01*
X99578421Y-147114323D01*
X99535525Y-147137841D01*
X99507030Y-147167966D01*
X99486797Y-147205516D01*
X99471983Y-147242641D01*
X99461881Y-147338103D01*
X99488013Y-147440760D01*
X99541119Y-147522032D01*
X99569252Y-147542920D01*
X99617178Y-147551701D01*
X99721658Y-147559338D01*
X99875750Y-147565609D01*
X100072515Y-147570289D01*
X100305013Y-147573155D01*
X100534287Y-147574000D01*
X101441250Y-147574000D01*
X101441250Y-148812250D01*
X100534287Y-148812250D01*
X100283918Y-148813302D01*
X100059311Y-148816300D01*
X99868040Y-148821002D01*
X99717680Y-148827171D01*
X99615803Y-148834564D01*
X99570267Y-148842786D01*
X99496948Y-148914441D01*
X99460210Y-149016997D01*
X99467767Y-149124795D01*
X99477818Y-149150261D01*
X99503168Y-149197353D01*
X99533794Y-149234796D01*
X99576765Y-149263698D01*
X99639155Y-149285164D01*
X99728033Y-149300303D01*
X99850471Y-149310222D01*
X100013540Y-149316027D01*
X100224313Y-149318826D01*
X100489860Y-149319726D01*
X100560562Y-149319781D01*
X101442000Y-149320250D01*
X101421454Y-149455187D01*
X101349768Y-149733615D01*
X101225185Y-149977076D01*
X101048377Y-150184697D01*
X100820018Y-150355606D01*
X100663375Y-150437954D01*
X100619739Y-150457152D01*
X100576291Y-150472721D01*
X100526013Y-150485110D01*
X100461889Y-150494767D01*
X100376901Y-150502140D01*
X100264032Y-150507678D01*
X100116265Y-150511828D01*
X99926583Y-150515039D01*
X99687969Y-150517759D01*
X99393405Y-150520435D01*
X99368595Y-150520649D01*
X98232566Y-150530423D01*
X98241470Y-148646684D01*
X98250375Y-146762944D01*
X98353285Y-146553950D01*
X98498091Y-146327790D01*
X98689623Y-146132599D01*
X98913626Y-145982371D01*
X98957826Y-145960466D01*
X99139375Y-145875375D01*
X101147562Y-145866528D01*
X103155750Y-145857682D01*
X103155750Y-151034750D01*
D11*
X51713000Y-143145000D02*
X51713000Y-114665000D01*
X51713000Y-114665000D02*
X61063000Y-114665000D01*
X61063000Y-114665000D02*
X61063000Y-143145000D01*
X61063000Y-143145000D02*
X51713000Y-143145000D01*
X61313000Y-143395000D02*
X61313000Y-140855000D01*
X61313000Y-143395000D02*
X58773000Y-143395000D01*
X77486000Y-149031000D02*
G75*
G02X79486000Y-149031000I1000000J0D01*
G01*
X79486000Y-149031000D02*
X81136000Y-149031000D01*
X81136000Y-149031000D02*
X81136000Y-113351000D01*
X81136000Y-113351000D02*
X75836000Y-113351000D01*
X75836000Y-113351000D02*
X75836000Y-149031000D01*
X75836000Y-149031000D02*
X77486000Y-149031000D01*
X143965000Y-120470000D02*
X143965000Y-123370000D01*
X150675000Y-120470000D02*
X150675000Y-123370000D01*
X145870000Y-125275000D02*
X148770000Y-125275000D01*
X145870000Y-118565000D02*
X148770000Y-118565000D01*
X87938000Y-114784000D02*
X87938000Y-119324000D01*
X85798000Y-114784000D02*
X85798000Y-119324000D01*
X87938000Y-114784000D02*
X87923000Y-114784000D01*
X85813000Y-114784000D02*
X85798000Y-114784000D01*
X87938000Y-119324000D02*
X87923000Y-119324000D01*
X85813000Y-119324000D02*
X85798000Y-119324000D01*
X85813000Y-127071000D02*
X85798000Y-127071000D01*
X87938000Y-127071000D02*
X87923000Y-127071000D01*
X85813000Y-122531000D02*
X85798000Y-122531000D01*
X87938000Y-122531000D02*
X87923000Y-122531000D01*
X85798000Y-122531000D02*
X85798000Y-127071000D01*
X87938000Y-122531000D02*
X87938000Y-127071000D01*
X147979000Y-100892000D02*
X143439000Y-100892000D01*
X147979000Y-98752000D02*
X143439000Y-98752000D01*
X147979000Y-100892000D02*
X147979000Y-100877000D01*
X147979000Y-98767000D02*
X147979000Y-98752000D01*
X143439000Y-100892000D02*
X143439000Y-100877000D01*
X143439000Y-98767000D02*
X143439000Y-98752000D01*
X80070354Y-77905000D02*
X80070354Y-78905000D01*
X79570354Y-78405000D02*
X80570354Y-78405000D01*
X90131000Y-80681000D02*
X90131000Y-81879000D01*
X90091000Y-80418000D02*
X90091000Y-82142000D01*
X90051000Y-80218000D02*
X90051000Y-82342000D01*
X90011000Y-80050000D02*
X90011000Y-82510000D01*
X89971000Y-79902000D02*
X89971000Y-82658000D01*
X89931000Y-79770000D02*
X89931000Y-82790000D01*
X89891000Y-79650000D02*
X89891000Y-82910000D01*
X89851000Y-79538000D02*
X89851000Y-83022000D01*
X89811000Y-79434000D02*
X89811000Y-83126000D01*
X89771000Y-79336000D02*
X89771000Y-83224000D01*
X89731000Y-79243000D02*
X89731000Y-83317000D01*
X89691000Y-79155000D02*
X89691000Y-83405000D01*
X89651000Y-79071000D02*
X89651000Y-83489000D01*
X89611000Y-78991000D02*
X89611000Y-83569000D01*
X89571000Y-78915000D02*
X89571000Y-83645000D01*
X89531000Y-78841000D02*
X89531000Y-83719000D01*
X89491000Y-78770000D02*
X89491000Y-83790000D01*
X89451000Y-78701000D02*
X89451000Y-83859000D01*
X89411000Y-78635000D02*
X89411000Y-83925000D01*
X89371000Y-78571000D02*
X89371000Y-83989000D01*
X89331000Y-78510000D02*
X89331000Y-84050000D01*
X89291000Y-78450000D02*
X89291000Y-84110000D01*
X89251000Y-78391000D02*
X89251000Y-84169000D01*
X89211000Y-78335000D02*
X89211000Y-84225000D01*
X89171000Y-78280000D02*
X89171000Y-84280000D01*
X89131000Y-78226000D02*
X89131000Y-84334000D01*
X89091000Y-78174000D02*
X89091000Y-84386000D01*
X89051000Y-78124000D02*
X89051000Y-84436000D01*
X89011000Y-78074000D02*
X89011000Y-84486000D01*
X88971000Y-78026000D02*
X88971000Y-84534000D01*
X88931000Y-77979000D02*
X88931000Y-84581000D01*
X88891000Y-77933000D02*
X88891000Y-84627000D01*
X88851000Y-77888000D02*
X88851000Y-84672000D01*
X88811000Y-77844000D02*
X88811000Y-84716000D01*
X88771000Y-82521000D02*
X88771000Y-84758000D01*
X88771000Y-77802000D02*
X88771000Y-80039000D01*
X88731000Y-82521000D02*
X88731000Y-84800000D01*
X88731000Y-77760000D02*
X88731000Y-80039000D01*
X88691000Y-82521000D02*
X88691000Y-84841000D01*
X88691000Y-77719000D02*
X88691000Y-80039000D01*
X88651000Y-82521000D02*
X88651000Y-84881000D01*
X88651000Y-77679000D02*
X88651000Y-80039000D01*
X88611000Y-82521000D02*
X88611000Y-84920000D01*
X88611000Y-77640000D02*
X88611000Y-80039000D01*
X88571000Y-82521000D02*
X88571000Y-84959000D01*
X88571000Y-77601000D02*
X88571000Y-80039000D01*
X88531000Y-82521000D02*
X88531000Y-84996000D01*
X88531000Y-77564000D02*
X88531000Y-80039000D01*
X88491000Y-82521000D02*
X88491000Y-85033000D01*
X88491000Y-77527000D02*
X88491000Y-80039000D01*
X88451000Y-82521000D02*
X88451000Y-85069000D01*
X88451000Y-77491000D02*
X88451000Y-80039000D01*
X88411000Y-82521000D02*
X88411000Y-85104000D01*
X88411000Y-77456000D02*
X88411000Y-80039000D01*
X88371000Y-82521000D02*
X88371000Y-85138000D01*
X88371000Y-77422000D02*
X88371000Y-80039000D01*
X88331000Y-82521000D02*
X88331000Y-85172000D01*
X88331000Y-77388000D02*
X88331000Y-80039000D01*
X88291000Y-82521000D02*
X88291000Y-85205000D01*
X88291000Y-77355000D02*
X88291000Y-80039000D01*
X88251000Y-82521000D02*
X88251000Y-85237000D01*
X88251000Y-77323000D02*
X88251000Y-80039000D01*
X88211000Y-82521000D02*
X88211000Y-85269000D01*
X88211000Y-77291000D02*
X88211000Y-80039000D01*
X88171000Y-82521000D02*
X88171000Y-85300000D01*
X88171000Y-77260000D02*
X88171000Y-80039000D01*
X88131000Y-82521000D02*
X88131000Y-85330000D01*
X88131000Y-77230000D02*
X88131000Y-80039000D01*
X88091000Y-82521000D02*
X88091000Y-85360000D01*
X88091000Y-77200000D02*
X88091000Y-80039000D01*
X88051000Y-82521000D02*
X88051000Y-85390000D01*
X88051000Y-77170000D02*
X88051000Y-80039000D01*
X88011000Y-82521000D02*
X88011000Y-85418000D01*
X88011000Y-77142000D02*
X88011000Y-80039000D01*
X87971000Y-82521000D02*
X87971000Y-85446000D01*
X87971000Y-77114000D02*
X87971000Y-80039000D01*
X87931000Y-82521000D02*
X87931000Y-85474000D01*
X87931000Y-77086000D02*
X87931000Y-80039000D01*
X87891000Y-82521000D02*
X87891000Y-85501000D01*
X87891000Y-77059000D02*
X87891000Y-80039000D01*
X87851000Y-82521000D02*
X87851000Y-85527000D01*
X87851000Y-77033000D02*
X87851000Y-80039000D01*
X87811000Y-82521000D02*
X87811000Y-85553000D01*
X87811000Y-77007000D02*
X87811000Y-80039000D01*
X87771000Y-82521000D02*
X87771000Y-85578000D01*
X87771000Y-76982000D02*
X87771000Y-80039000D01*
X87731000Y-82521000D02*
X87731000Y-85603000D01*
X87731000Y-76957000D02*
X87731000Y-80039000D01*
X87691000Y-82521000D02*
X87691000Y-85627000D01*
X87691000Y-76933000D02*
X87691000Y-80039000D01*
X87651000Y-82521000D02*
X87651000Y-85651000D01*
X87651000Y-76909000D02*
X87651000Y-80039000D01*
X87611000Y-82521000D02*
X87611000Y-85675000D01*
X87611000Y-76885000D02*
X87611000Y-80039000D01*
X87571000Y-82521000D02*
X87571000Y-85697000D01*
X87571000Y-76863000D02*
X87571000Y-80039000D01*
X87531000Y-82521000D02*
X87531000Y-85720000D01*
X87531000Y-76840000D02*
X87531000Y-80039000D01*
X87491000Y-82521000D02*
X87491000Y-85742000D01*
X87491000Y-76818000D02*
X87491000Y-80039000D01*
X87451000Y-82521000D02*
X87451000Y-85763000D01*
X87451000Y-76797000D02*
X87451000Y-80039000D01*
X87411000Y-82521000D02*
X87411000Y-85784000D01*
X87411000Y-76776000D02*
X87411000Y-80039000D01*
X87371000Y-82521000D02*
X87371000Y-85805000D01*
X87371000Y-76755000D02*
X87371000Y-80039000D01*
X87331000Y-82521000D02*
X87331000Y-85825000D01*
X87331000Y-76735000D02*
X87331000Y-80039000D01*
X87291000Y-82521000D02*
X87291000Y-85844000D01*
X87291000Y-76716000D02*
X87291000Y-80039000D01*
X87251000Y-82521000D02*
X87251000Y-85864000D01*
X87251000Y-76696000D02*
X87251000Y-80039000D01*
X87211000Y-82521000D02*
X87211000Y-85883000D01*
X87211000Y-76677000D02*
X87211000Y-80039000D01*
X87171000Y-82521000D02*
X87171000Y-85901000D01*
X87171000Y-76659000D02*
X87171000Y-80039000D01*
X87131000Y-82521000D02*
X87131000Y-85919000D01*
X87131000Y-76641000D02*
X87131000Y-80039000D01*
X87091000Y-82521000D02*
X87091000Y-85937000D01*
X87091000Y-76623000D02*
X87091000Y-80039000D01*
X87051000Y-82521000D02*
X87051000Y-85954000D01*
X87051000Y-76606000D02*
X87051000Y-80039000D01*
X87011000Y-82521000D02*
X87011000Y-85970000D01*
X87011000Y-76590000D02*
X87011000Y-80039000D01*
X86971000Y-82521000D02*
X86971000Y-85987000D01*
X86971000Y-76573000D02*
X86971000Y-80039000D01*
X86931000Y-82521000D02*
X86931000Y-86003000D01*
X86931000Y-76557000D02*
X86931000Y-80039000D01*
X86891000Y-82521000D02*
X86891000Y-86018000D01*
X86891000Y-76542000D02*
X86891000Y-80039000D01*
X86851000Y-82521000D02*
X86851000Y-86034000D01*
X86851000Y-76526000D02*
X86851000Y-80039000D01*
X86811000Y-82521000D02*
X86811000Y-86048000D01*
X86811000Y-76512000D02*
X86811000Y-80039000D01*
X86771000Y-82521000D02*
X86771000Y-86063000D01*
X86771000Y-76497000D02*
X86771000Y-80039000D01*
X86731000Y-82521000D02*
X86731000Y-86077000D01*
X86731000Y-76483000D02*
X86731000Y-80039000D01*
X86691000Y-82521000D02*
X86691000Y-86091000D01*
X86691000Y-76469000D02*
X86691000Y-80039000D01*
X86651000Y-82521000D02*
X86651000Y-86104000D01*
X86651000Y-76456000D02*
X86651000Y-80039000D01*
X86611000Y-82521000D02*
X86611000Y-86117000D01*
X86611000Y-76443000D02*
X86611000Y-80039000D01*
X86571000Y-82521000D02*
X86571000Y-86130000D01*
X86571000Y-76430000D02*
X86571000Y-80039000D01*
X86531000Y-82521000D02*
X86531000Y-86142000D01*
X86531000Y-76418000D02*
X86531000Y-80039000D01*
X86491000Y-82521000D02*
X86491000Y-86154000D01*
X86491000Y-76406000D02*
X86491000Y-80039000D01*
X86451000Y-82521000D02*
X86451000Y-86165000D01*
X86451000Y-76395000D02*
X86451000Y-80039000D01*
X86411000Y-82521000D02*
X86411000Y-86177000D01*
X86411000Y-76383000D02*
X86411000Y-80039000D01*
X86371000Y-82521000D02*
X86371000Y-86187000D01*
X86371000Y-76373000D02*
X86371000Y-80039000D01*
X86331000Y-82521000D02*
X86331000Y-86198000D01*
X86331000Y-76362000D02*
X86331000Y-80039000D01*
X86291000Y-76352000D02*
X86291000Y-86208000D01*
X86251000Y-76342000D02*
X86251000Y-86218000D01*
X86211000Y-76333000D02*
X86211000Y-86227000D01*
X86171000Y-76324000D02*
X86171000Y-86236000D01*
X86131000Y-76315000D02*
X86131000Y-86245000D01*
X86091000Y-76306000D02*
X86091000Y-86254000D01*
X86051000Y-76298000D02*
X86051000Y-86262000D01*
X86011000Y-76290000D02*
X86011000Y-86270000D01*
X85971000Y-76283000D02*
X85971000Y-86277000D01*
X85931000Y-76276000D02*
X85931000Y-86284000D01*
X85891000Y-76269000D02*
X85891000Y-86291000D01*
X85851000Y-76262000D02*
X85851000Y-86298000D01*
X85811000Y-76256000D02*
X85811000Y-86304000D01*
X85771000Y-76250000D02*
X85771000Y-86310000D01*
X85730000Y-76245000D02*
X85730000Y-86315000D01*
X85690000Y-76240000D02*
X85690000Y-86320000D01*
X85650000Y-76235000D02*
X85650000Y-86325000D01*
X85610000Y-76230000D02*
X85610000Y-86330000D01*
X85570000Y-76226000D02*
X85570000Y-86334000D01*
X85530000Y-76222000D02*
X85530000Y-86338000D01*
X85490000Y-76218000D02*
X85490000Y-86342000D01*
X85450000Y-76215000D02*
X85450000Y-86345000D01*
X85410000Y-76212000D02*
X85410000Y-86348000D01*
X85370000Y-76210000D02*
X85370000Y-86350000D01*
X85330000Y-76207000D02*
X85330000Y-86353000D01*
X85290000Y-76205000D02*
X85290000Y-86355000D01*
X85250000Y-76203000D02*
X85250000Y-86357000D01*
X85210000Y-76202000D02*
X85210000Y-86358000D01*
X85170000Y-76201000D02*
X85170000Y-86359000D01*
X85130000Y-76200000D02*
X85130000Y-86360000D01*
X85090000Y-76200000D02*
X85090000Y-86360000D01*
X85050000Y-76200000D02*
X85050000Y-86360000D01*
X90170000Y-81280000D02*
G75*
G03X90170000Y-81280000I-5120000J0D01*
G01*
X115370000Y-85029646D02*
X116370000Y-85029646D01*
X115870000Y-85529646D02*
X115870000Y-84529646D01*
X118146000Y-74969000D02*
X119344000Y-74969000D01*
X117883000Y-75009000D02*
X119607000Y-75009000D01*
X117683000Y-75049000D02*
X119807000Y-75049000D01*
X117515000Y-75089000D02*
X119975000Y-75089000D01*
X117367000Y-75129000D02*
X120123000Y-75129000D01*
X117235000Y-75169000D02*
X120255000Y-75169000D01*
X117115000Y-75209000D02*
X120375000Y-75209000D01*
X117003000Y-75249000D02*
X120487000Y-75249000D01*
X116899000Y-75289000D02*
X120591000Y-75289000D01*
X116801000Y-75329000D02*
X120689000Y-75329000D01*
X116708000Y-75369000D02*
X120782000Y-75369000D01*
X116620000Y-75409000D02*
X120870000Y-75409000D01*
X116536000Y-75449000D02*
X120954000Y-75449000D01*
X116456000Y-75489000D02*
X121034000Y-75489000D01*
X116380000Y-75529000D02*
X121110000Y-75529000D01*
X116306000Y-75569000D02*
X121184000Y-75569000D01*
X116235000Y-75609000D02*
X121255000Y-75609000D01*
X116166000Y-75649000D02*
X121324000Y-75649000D01*
X116100000Y-75689000D02*
X121390000Y-75689000D01*
X116036000Y-75729000D02*
X121454000Y-75729000D01*
X115975000Y-75769000D02*
X121515000Y-75769000D01*
X115915000Y-75809000D02*
X121575000Y-75809000D01*
X115856000Y-75849000D02*
X121634000Y-75849000D01*
X115800000Y-75889000D02*
X121690000Y-75889000D01*
X115745000Y-75929000D02*
X121745000Y-75929000D01*
X115691000Y-75969000D02*
X121799000Y-75969000D01*
X115639000Y-76009000D02*
X121851000Y-76009000D01*
X115589000Y-76049000D02*
X121901000Y-76049000D01*
X115539000Y-76089000D02*
X121951000Y-76089000D01*
X115491000Y-76129000D02*
X121999000Y-76129000D01*
X115444000Y-76169000D02*
X122046000Y-76169000D01*
X115398000Y-76209000D02*
X122092000Y-76209000D01*
X115353000Y-76249000D02*
X122137000Y-76249000D01*
X115309000Y-76289000D02*
X122181000Y-76289000D01*
X119986000Y-76329000D02*
X122223000Y-76329000D01*
X115267000Y-76329000D02*
X117504000Y-76329000D01*
X119986000Y-76369000D02*
X122265000Y-76369000D01*
X115225000Y-76369000D02*
X117504000Y-76369000D01*
X119986000Y-76409000D02*
X122306000Y-76409000D01*
X115184000Y-76409000D02*
X117504000Y-76409000D01*
X119986000Y-76449000D02*
X122346000Y-76449000D01*
X115144000Y-76449000D02*
X117504000Y-76449000D01*
X119986000Y-76489000D02*
X122385000Y-76489000D01*
X115105000Y-76489000D02*
X117504000Y-76489000D01*
X119986000Y-76529000D02*
X122424000Y-76529000D01*
X115066000Y-76529000D02*
X117504000Y-76529000D01*
X119986000Y-76569000D02*
X122461000Y-76569000D01*
X115029000Y-76569000D02*
X117504000Y-76569000D01*
X119986000Y-76609000D02*
X122498000Y-76609000D01*
X114992000Y-76609000D02*
X117504000Y-76609000D01*
X119986000Y-76649000D02*
X122534000Y-76649000D01*
X114956000Y-76649000D02*
X117504000Y-76649000D01*
X119986000Y-76689000D02*
X122569000Y-76689000D01*
X114921000Y-76689000D02*
X117504000Y-76689000D01*
X119986000Y-76729000D02*
X122603000Y-76729000D01*
X114887000Y-76729000D02*
X117504000Y-76729000D01*
X119986000Y-76769000D02*
X122637000Y-76769000D01*
X114853000Y-76769000D02*
X117504000Y-76769000D01*
X119986000Y-76809000D02*
X122670000Y-76809000D01*
X114820000Y-76809000D02*
X117504000Y-76809000D01*
X119986000Y-76849000D02*
X122702000Y-76849000D01*
X114788000Y-76849000D02*
X117504000Y-76849000D01*
X119986000Y-76889000D02*
X122734000Y-76889000D01*
X114756000Y-76889000D02*
X117504000Y-76889000D01*
X119986000Y-76929000D02*
X122765000Y-76929000D01*
X114725000Y-76929000D02*
X117504000Y-76929000D01*
X119986000Y-76969000D02*
X122795000Y-76969000D01*
X114695000Y-76969000D02*
X117504000Y-76969000D01*
X119986000Y-77009000D02*
X122825000Y-77009000D01*
X114665000Y-77009000D02*
X117504000Y-77009000D01*
X119986000Y-77049000D02*
X122855000Y-77049000D01*
X114635000Y-77049000D02*
X117504000Y-77049000D01*
X119986000Y-77089000D02*
X122883000Y-77089000D01*
X114607000Y-77089000D02*
X117504000Y-77089000D01*
X119986000Y-77129000D02*
X122911000Y-77129000D01*
X114579000Y-77129000D02*
X117504000Y-77129000D01*
X119986000Y-77169000D02*
X122939000Y-77169000D01*
X114551000Y-77169000D02*
X117504000Y-77169000D01*
X119986000Y-77209000D02*
X122966000Y-77209000D01*
X114524000Y-77209000D02*
X117504000Y-77209000D01*
X119986000Y-77249000D02*
X122992000Y-77249000D01*
X114498000Y-77249000D02*
X117504000Y-77249000D01*
X119986000Y-77289000D02*
X123018000Y-77289000D01*
X114472000Y-77289000D02*
X117504000Y-77289000D01*
X119986000Y-77329000D02*
X123043000Y-77329000D01*
X114447000Y-77329000D02*
X117504000Y-77329000D01*
X119986000Y-77369000D02*
X123068000Y-77369000D01*
X114422000Y-77369000D02*
X117504000Y-77369000D01*
X119986000Y-77409000D02*
X123092000Y-77409000D01*
X114398000Y-77409000D02*
X117504000Y-77409000D01*
X119986000Y-77449000D02*
X123116000Y-77449000D01*
X114374000Y-77449000D02*
X117504000Y-77449000D01*
X119986000Y-77489000D02*
X123140000Y-77489000D01*
X114350000Y-77489000D02*
X117504000Y-77489000D01*
X119986000Y-77529000D02*
X123162000Y-77529000D01*
X114328000Y-77529000D02*
X117504000Y-77529000D01*
X119986000Y-77569000D02*
X123185000Y-77569000D01*
X114305000Y-77569000D02*
X117504000Y-77569000D01*
X119986000Y-77609000D02*
X123207000Y-77609000D01*
X114283000Y-77609000D02*
X117504000Y-77609000D01*
X119986000Y-77649000D02*
X123228000Y-77649000D01*
X114262000Y-77649000D02*
X117504000Y-77649000D01*
X119986000Y-77689000D02*
X123249000Y-77689000D01*
X114241000Y-77689000D02*
X117504000Y-77689000D01*
X119986000Y-77729000D02*
X123270000Y-77729000D01*
X114220000Y-77729000D02*
X117504000Y-77729000D01*
X119986000Y-77769000D02*
X123290000Y-77769000D01*
X114200000Y-77769000D02*
X117504000Y-77769000D01*
X119986000Y-77809000D02*
X123309000Y-77809000D01*
X114181000Y-77809000D02*
X117504000Y-77809000D01*
X119986000Y-77849000D02*
X123329000Y-77849000D01*
X114161000Y-77849000D02*
X117504000Y-77849000D01*
X119986000Y-77889000D02*
X123348000Y-77889000D01*
X114142000Y-77889000D02*
X117504000Y-77889000D01*
X119986000Y-77929000D02*
X123366000Y-77929000D01*
X114124000Y-77929000D02*
X117504000Y-77929000D01*
X119986000Y-77969000D02*
X123384000Y-77969000D01*
X114106000Y-77969000D02*
X117504000Y-77969000D01*
X119986000Y-78009000D02*
X123402000Y-78009000D01*
X114088000Y-78009000D02*
X117504000Y-78009000D01*
X119986000Y-78049000D02*
X123419000Y-78049000D01*
X114071000Y-78049000D02*
X117504000Y-78049000D01*
X119986000Y-78089000D02*
X123435000Y-78089000D01*
X114055000Y-78089000D02*
X117504000Y-78089000D01*
X119986000Y-78129000D02*
X123452000Y-78129000D01*
X114038000Y-78129000D02*
X117504000Y-78129000D01*
X119986000Y-78169000D02*
X123468000Y-78169000D01*
X114022000Y-78169000D02*
X117504000Y-78169000D01*
X119986000Y-78209000D02*
X123483000Y-78209000D01*
X114007000Y-78209000D02*
X117504000Y-78209000D01*
X119986000Y-78249000D02*
X123499000Y-78249000D01*
X113991000Y-78249000D02*
X117504000Y-78249000D01*
X119986000Y-78289000D02*
X123513000Y-78289000D01*
X113977000Y-78289000D02*
X117504000Y-78289000D01*
X119986000Y-78329000D02*
X123528000Y-78329000D01*
X113962000Y-78329000D02*
X117504000Y-78329000D01*
X119986000Y-78369000D02*
X123542000Y-78369000D01*
X113948000Y-78369000D02*
X117504000Y-78369000D01*
X119986000Y-78409000D02*
X123556000Y-78409000D01*
X113934000Y-78409000D02*
X117504000Y-78409000D01*
X119986000Y-78449000D02*
X123569000Y-78449000D01*
X113921000Y-78449000D02*
X117504000Y-78449000D01*
X119986000Y-78489000D02*
X123582000Y-78489000D01*
X113908000Y-78489000D02*
X117504000Y-78489000D01*
X119986000Y-78529000D02*
X123595000Y-78529000D01*
X113895000Y-78529000D02*
X117504000Y-78529000D01*
X119986000Y-78569000D02*
X123607000Y-78569000D01*
X113883000Y-78569000D02*
X117504000Y-78569000D01*
X119986000Y-78609000D02*
X123619000Y-78609000D01*
X113871000Y-78609000D02*
X117504000Y-78609000D01*
X119986000Y-78649000D02*
X123630000Y-78649000D01*
X113860000Y-78649000D02*
X117504000Y-78649000D01*
X119986000Y-78689000D02*
X123642000Y-78689000D01*
X113848000Y-78689000D02*
X117504000Y-78689000D01*
X119986000Y-78729000D02*
X123652000Y-78729000D01*
X113838000Y-78729000D02*
X117504000Y-78729000D01*
X119986000Y-78769000D02*
X123663000Y-78769000D01*
X113827000Y-78769000D02*
X117504000Y-78769000D01*
X113817000Y-78809000D02*
X123673000Y-78809000D01*
X113807000Y-78849000D02*
X123683000Y-78849000D01*
X113798000Y-78889000D02*
X123692000Y-78889000D01*
X113789000Y-78929000D02*
X123701000Y-78929000D01*
X113780000Y-78969000D02*
X123710000Y-78969000D01*
X113771000Y-79009000D02*
X123719000Y-79009000D01*
X113763000Y-79049000D02*
X123727000Y-79049000D01*
X113755000Y-79089000D02*
X123735000Y-79089000D01*
X113748000Y-79129000D02*
X123742000Y-79129000D01*
X113741000Y-79169000D02*
X123749000Y-79169000D01*
X113734000Y-79209000D02*
X123756000Y-79209000D01*
X113727000Y-79249000D02*
X123763000Y-79249000D01*
X113721000Y-79289000D02*
X123769000Y-79289000D01*
X113715000Y-79329000D02*
X123775000Y-79329000D01*
X113710000Y-79370000D02*
X123780000Y-79370000D01*
X113705000Y-79410000D02*
X123785000Y-79410000D01*
X113700000Y-79450000D02*
X123790000Y-79450000D01*
X113695000Y-79490000D02*
X123795000Y-79490000D01*
X113691000Y-79530000D02*
X123799000Y-79530000D01*
X113687000Y-79570000D02*
X123803000Y-79570000D01*
X113683000Y-79610000D02*
X123807000Y-79610000D01*
X113680000Y-79650000D02*
X123810000Y-79650000D01*
X113677000Y-79690000D02*
X123813000Y-79690000D01*
X113675000Y-79730000D02*
X123815000Y-79730000D01*
X113672000Y-79770000D02*
X123818000Y-79770000D01*
X113670000Y-79810000D02*
X123820000Y-79810000D01*
X113668000Y-79850000D02*
X123822000Y-79850000D01*
X113667000Y-79890000D02*
X123823000Y-79890000D01*
X113666000Y-79930000D02*
X123824000Y-79930000D01*
X113665000Y-79970000D02*
X123825000Y-79970000D01*
X113665000Y-80010000D02*
X123825000Y-80010000D01*
X113665000Y-80050000D02*
X123825000Y-80050000D01*
X123865000Y-80050000D02*
G75*
G03X123865000Y-80050000I-5120000J0D01*
G01*
X124115589Y-97608395D02*
G75*
G02X124110000Y-105600000I-6005589J-3991605D01*
G01*
X112104411Y-105591605D02*
G75*
G02X112110000Y-97600000I6005589J3991605D01*
G01*
X124110000Y-105600000D02*
X120910000Y-110750000D01*
X112110000Y-97600000D02*
X115310000Y-92450000D01*
D10*
X120910000Y-92450000D02*
X124110000Y-97600000D01*
D11*
X115310000Y-110750000D02*
X112110000Y-105600000D01*
X54350000Y-77210000D02*
X59500000Y-74010000D01*
D10*
X72650000Y-82810000D02*
X67500000Y-86010000D01*
D11*
X67500000Y-74010000D02*
X72650000Y-77210000D01*
X59500000Y-86010000D02*
X54350000Y-82810000D01*
X59508395Y-74004411D02*
G75*
G02X67500000Y-74010000I3991605J-6005589D01*
G01*
X67491605Y-86015589D02*
G75*
G02X59500000Y-86010000I-3991605J6005589D01*
G01*
X149706000Y-105569000D02*
X146966000Y-105569000D01*
X146966000Y-105569000D02*
X146966000Y-112109000D01*
X146966000Y-112109000D02*
X149706000Y-112109000D01*
X149706000Y-112109000D02*
X149706000Y-105569000D01*
X148336000Y-104799000D02*
X148336000Y-105569000D01*
X148336000Y-112879000D02*
X148336000Y-112109000D01*
X143256000Y-104799000D02*
X143256000Y-105569000D01*
X143256000Y-112879000D02*
X143256000Y-112109000D01*
X141886000Y-105569000D02*
X141886000Y-112109000D01*
X144626000Y-105569000D02*
X141886000Y-105569000D01*
X144626000Y-112109000D02*
X144626000Y-105569000D01*
X141886000Y-112109000D02*
X144626000Y-112109000D01*
X132468000Y-90096000D02*
X132468000Y-91596000D01*
X132468000Y-91596000D02*
X133418000Y-91596000D01*
X133418000Y-91596000D02*
X133418000Y-96721000D01*
X142868000Y-90096000D02*
X142868000Y-91596000D01*
X142868000Y-91596000D02*
X141918000Y-91596000D01*
X141918000Y-91596000D02*
X141918000Y-92696000D01*
X93865000Y-69710000D02*
X109785000Y-69710000D01*
X109785000Y-69710000D02*
X109785000Y-78935000D01*
X109785000Y-78935000D02*
X107880000Y-78935000D01*
X107880000Y-78935000D02*
X107880000Y-79940000D01*
X107880000Y-79940000D02*
X95770000Y-79940000D01*
X95770000Y-79940000D02*
X95770000Y-78935000D01*
X95770000Y-78935000D02*
X93865000Y-78935000D01*
X93865000Y-78935000D02*
X93865000Y-69710000D01*
X93575000Y-72930000D02*
X93575000Y-76930000D01*
X95885000Y-79940000D02*
X95885000Y-78940000D01*
X95885000Y-78940000D02*
X107765000Y-78940000D01*
X107765000Y-78940000D02*
X107765000Y-79940000D01*
X95885000Y-78940000D02*
X95885000Y-77270000D01*
X95885000Y-77270000D02*
X107765000Y-77270000D01*
X107765000Y-77270000D02*
X107765000Y-78940000D01*
X95085000Y-69710000D02*
X95085000Y-70310000D01*
X95085000Y-70310000D02*
X96685000Y-70310000D01*
X96685000Y-70310000D02*
X96685000Y-69710000D01*
X99045000Y-69710000D02*
X99045000Y-70310000D01*
X99045000Y-70310000D02*
X100645000Y-70310000D01*
X100645000Y-70310000D02*
X100645000Y-69710000D01*
X103005000Y-69710000D02*
X103005000Y-70310000D01*
X103005000Y-70310000D02*
X104605000Y-70310000D01*
X104605000Y-70310000D02*
X104605000Y-69710000D01*
X106965000Y-69710000D02*
X106965000Y-70310000D01*
X106965000Y-70310000D02*
X108565000Y-70310000D01*
X108565000Y-70310000D02*
X108565000Y-69710000D01*
X50152000Y-109462000D02*
X50152000Y-93542000D01*
X50152000Y-93542000D02*
X59377000Y-93542000D01*
X59377000Y-93542000D02*
X59377000Y-95447000D01*
X59377000Y-95447000D02*
X60382000Y-95447000D01*
X60382000Y-95447000D02*
X60382000Y-107557000D01*
X60382000Y-107557000D02*
X59377000Y-107557000D01*
X59377000Y-107557000D02*
X59377000Y-109462000D01*
X59377000Y-109462000D02*
X50152000Y-109462000D01*
X53372000Y-109752000D02*
X57372000Y-109752000D01*
X60382000Y-107442000D02*
X59382000Y-107442000D01*
X59382000Y-107442000D02*
X59382000Y-95562000D01*
X59382000Y-95562000D02*
X60382000Y-95562000D01*
X59382000Y-107442000D02*
X57712000Y-107442000D01*
X57712000Y-107442000D02*
X57712000Y-95562000D01*
X57712000Y-95562000D02*
X59382000Y-95562000D01*
X50152000Y-108242000D02*
X50752000Y-108242000D01*
X50752000Y-108242000D02*
X50752000Y-106642000D01*
X50752000Y-106642000D02*
X50152000Y-106642000D01*
X50152000Y-104282000D02*
X50752000Y-104282000D01*
X50752000Y-104282000D02*
X50752000Y-102682000D01*
X50752000Y-102682000D02*
X50152000Y-102682000D01*
X50152000Y-100322000D02*
X50752000Y-100322000D01*
X50752000Y-100322000D02*
X50752000Y-98722000D01*
X50752000Y-98722000D02*
X50152000Y-98722000D01*
X50152000Y-96362000D02*
X50752000Y-96362000D01*
X50752000Y-96362000D02*
X50752000Y-94762000D01*
X50752000Y-94762000D02*
X50152000Y-94762000D01*
X66223000Y-129374000D02*
X66223000Y-129359000D01*
X66223000Y-131499000D02*
X66223000Y-131484000D01*
X70763000Y-129374000D02*
X70763000Y-129359000D01*
X70763000Y-131499000D02*
X70763000Y-131484000D01*
X70763000Y-129359000D02*
X66223000Y-129359000D01*
X70763000Y-131499000D02*
X66223000Y-131499000D01*
X70810000Y-127689000D02*
X66270000Y-127689000D01*
X70810000Y-125549000D02*
X66270000Y-125549000D01*
X70810000Y-127689000D02*
X70810000Y-127674000D01*
X70810000Y-125564000D02*
X70810000Y-125549000D01*
X66270000Y-127689000D02*
X66270000Y-127674000D01*
X66270000Y-125564000D02*
X66270000Y-125549000D01*
X85574000Y-129867000D02*
X90114000Y-129867000D01*
X85574000Y-132007000D02*
X90114000Y-132007000D01*
X85574000Y-129867000D02*
X85574000Y-129882000D01*
X85574000Y-131992000D02*
X85574000Y-132007000D01*
X90114000Y-129867000D02*
X90114000Y-129882000D01*
X90114000Y-131992000D02*
X90114000Y-132007000D01*
X127310000Y-120170000D02*
G75*
G03X127310000Y-120170000I-4120000J0D01*
G01*
X119110000Y-120170000D02*
X127270000Y-120170000D01*
X119110000Y-120130000D02*
X127270000Y-120130000D01*
X119110000Y-120090000D02*
X127270000Y-120090000D01*
X119111000Y-120050000D02*
X127269000Y-120050000D01*
X119113000Y-120010000D02*
X127267000Y-120010000D01*
X119114000Y-119970000D02*
X127266000Y-119970000D01*
X119116000Y-119930000D02*
X127264000Y-119930000D01*
X119119000Y-119890000D02*
X127261000Y-119890000D01*
X119122000Y-119850000D02*
X127258000Y-119850000D01*
X119125000Y-119810000D02*
X127255000Y-119810000D01*
X119129000Y-119770000D02*
X127251000Y-119770000D01*
X119133000Y-119730000D02*
X127247000Y-119730000D01*
X119138000Y-119690000D02*
X127242000Y-119690000D01*
X119142000Y-119650000D02*
X127238000Y-119650000D01*
X119148000Y-119610000D02*
X127232000Y-119610000D01*
X119153000Y-119570000D02*
X127227000Y-119570000D01*
X119160000Y-119530000D02*
X127220000Y-119530000D01*
X119166000Y-119490000D02*
X127214000Y-119490000D01*
X119173000Y-119449000D02*
X122150000Y-119449000D01*
X124230000Y-119449000D02*
X127207000Y-119449000D01*
X119180000Y-119409000D02*
X122150000Y-119409000D01*
X124230000Y-119409000D02*
X127200000Y-119409000D01*
X119188000Y-119369000D02*
X122150000Y-119369000D01*
X124230000Y-119369000D02*
X127192000Y-119369000D01*
X119196000Y-119329000D02*
X122150000Y-119329000D01*
X124230000Y-119329000D02*
X127184000Y-119329000D01*
X119205000Y-119289000D02*
X122150000Y-119289000D01*
X124230000Y-119289000D02*
X127175000Y-119289000D01*
X119214000Y-119249000D02*
X122150000Y-119249000D01*
X124230000Y-119249000D02*
X127166000Y-119249000D01*
X119223000Y-119209000D02*
X122150000Y-119209000D01*
X124230000Y-119209000D02*
X127157000Y-119209000D01*
X119233000Y-119169000D02*
X122150000Y-119169000D01*
X124230000Y-119169000D02*
X127147000Y-119169000D01*
X119243000Y-119129000D02*
X122150000Y-119129000D01*
X124230000Y-119129000D02*
X127137000Y-119129000D01*
X119254000Y-119089000D02*
X122150000Y-119089000D01*
X124230000Y-119089000D02*
X127126000Y-119089000D01*
X119265000Y-119049000D02*
X122150000Y-119049000D01*
X124230000Y-119049000D02*
X127115000Y-119049000D01*
X119276000Y-119009000D02*
X122150000Y-119009000D01*
X124230000Y-119009000D02*
X127104000Y-119009000D01*
X119288000Y-118969000D02*
X122150000Y-118969000D01*
X124230000Y-118969000D02*
X127092000Y-118969000D01*
X119301000Y-118929000D02*
X122150000Y-118929000D01*
X124230000Y-118929000D02*
X127079000Y-118929000D01*
X119313000Y-118889000D02*
X122150000Y-118889000D01*
X124230000Y-118889000D02*
X127067000Y-118889000D01*
X119327000Y-118849000D02*
X122150000Y-118849000D01*
X124230000Y-118849000D02*
X127053000Y-118849000D01*
X119340000Y-118809000D02*
X122150000Y-118809000D01*
X124230000Y-118809000D02*
X127040000Y-118809000D01*
X119355000Y-118769000D02*
X122150000Y-118769000D01*
X124230000Y-118769000D02*
X127025000Y-118769000D01*
X119369000Y-118729000D02*
X122150000Y-118729000D01*
X124230000Y-118729000D02*
X127011000Y-118729000D01*
X119385000Y-118689000D02*
X122150000Y-118689000D01*
X124230000Y-118689000D02*
X126995000Y-118689000D01*
X119400000Y-118649000D02*
X122150000Y-118649000D01*
X124230000Y-118649000D02*
X126980000Y-118649000D01*
X119416000Y-118609000D02*
X122150000Y-118609000D01*
X124230000Y-118609000D02*
X126964000Y-118609000D01*
X119433000Y-118569000D02*
X122150000Y-118569000D01*
X124230000Y-118569000D02*
X126947000Y-118569000D01*
X119450000Y-118529000D02*
X122150000Y-118529000D01*
X124230000Y-118529000D02*
X126930000Y-118529000D01*
X119468000Y-118489000D02*
X122150000Y-118489000D01*
X124230000Y-118489000D02*
X126912000Y-118489000D01*
X119486000Y-118449000D02*
X122150000Y-118449000D01*
X124230000Y-118449000D02*
X126894000Y-118449000D01*
X119504000Y-118409000D02*
X122150000Y-118409000D01*
X124230000Y-118409000D02*
X126876000Y-118409000D01*
X119524000Y-118369000D02*
X122150000Y-118369000D01*
X124230000Y-118369000D02*
X126856000Y-118369000D01*
X119543000Y-118329000D02*
X122150000Y-118329000D01*
X124230000Y-118329000D02*
X126837000Y-118329000D01*
X119563000Y-118289000D02*
X122150000Y-118289000D01*
X124230000Y-118289000D02*
X126817000Y-118289000D01*
X119584000Y-118249000D02*
X122150000Y-118249000D01*
X124230000Y-118249000D02*
X126796000Y-118249000D01*
X119606000Y-118209000D02*
X122150000Y-118209000D01*
X124230000Y-118209000D02*
X126774000Y-118209000D01*
X119628000Y-118169000D02*
X122150000Y-118169000D01*
X124230000Y-118169000D02*
X126752000Y-118169000D01*
X119650000Y-118129000D02*
X122150000Y-118129000D01*
X124230000Y-118129000D02*
X126730000Y-118129000D01*
X119673000Y-118089000D02*
X122150000Y-118089000D01*
X124230000Y-118089000D02*
X126707000Y-118089000D01*
X119697000Y-118049000D02*
X122150000Y-118049000D01*
X124230000Y-118049000D02*
X126683000Y-118049000D01*
X119721000Y-118009000D02*
X122150000Y-118009000D01*
X124230000Y-118009000D02*
X126659000Y-118009000D01*
X119746000Y-117969000D02*
X122150000Y-117969000D01*
X124230000Y-117969000D02*
X126634000Y-117969000D01*
X119772000Y-117929000D02*
X122150000Y-117929000D01*
X124230000Y-117929000D02*
X126608000Y-117929000D01*
X119798000Y-117889000D02*
X122150000Y-117889000D01*
X124230000Y-117889000D02*
X126582000Y-117889000D01*
X119825000Y-117849000D02*
X122150000Y-117849000D01*
X124230000Y-117849000D02*
X126555000Y-117849000D01*
X119852000Y-117809000D02*
X122150000Y-117809000D01*
X124230000Y-117809000D02*
X126528000Y-117809000D01*
X119881000Y-117769000D02*
X122150000Y-117769000D01*
X124230000Y-117769000D02*
X126499000Y-117769000D01*
X119910000Y-117729000D02*
X122150000Y-117729000D01*
X124230000Y-117729000D02*
X126470000Y-117729000D01*
X119940000Y-117689000D02*
X122150000Y-117689000D01*
X124230000Y-117689000D02*
X126440000Y-117689000D01*
X119970000Y-117649000D02*
X122150000Y-117649000D01*
X124230000Y-117649000D02*
X126410000Y-117649000D01*
X120001000Y-117609000D02*
X122150000Y-117609000D01*
X124230000Y-117609000D02*
X126379000Y-117609000D01*
X120034000Y-117569000D02*
X122150000Y-117569000D01*
X124230000Y-117569000D02*
X126346000Y-117569000D01*
X120066000Y-117529000D02*
X122150000Y-117529000D01*
X124230000Y-117529000D02*
X126314000Y-117529000D01*
X120100000Y-117489000D02*
X122150000Y-117489000D01*
X124230000Y-117489000D02*
X126280000Y-117489000D01*
X120135000Y-117449000D02*
X122150000Y-117449000D01*
X124230000Y-117449000D02*
X126245000Y-117449000D01*
X120171000Y-117409000D02*
X122150000Y-117409000D01*
X124230000Y-117409000D02*
X126209000Y-117409000D01*
X120207000Y-117369000D02*
X126173000Y-117369000D01*
X120245000Y-117329000D02*
X126135000Y-117329000D01*
X120283000Y-117289000D02*
X126097000Y-117289000D01*
X120323000Y-117249000D02*
X126057000Y-117249000D01*
X120364000Y-117209000D02*
X126016000Y-117209000D01*
X120406000Y-117169000D02*
X125974000Y-117169000D01*
X120449000Y-117129000D02*
X125931000Y-117129000D01*
X120493000Y-117089000D02*
X125887000Y-117089000D01*
X120539000Y-117049000D02*
X125841000Y-117049000D01*
X120586000Y-117009000D02*
X125794000Y-117009000D01*
X120634000Y-116969000D02*
X125746000Y-116969000D01*
X120685000Y-116929000D02*
X125695000Y-116929000D01*
X120736000Y-116889000D02*
X125644000Y-116889000D01*
X120790000Y-116849000D02*
X125590000Y-116849000D01*
X120845000Y-116809000D02*
X125535000Y-116809000D01*
X120903000Y-116769000D02*
X125477000Y-116769000D01*
X120962000Y-116729000D02*
X125418000Y-116729000D01*
X121024000Y-116689000D02*
X125356000Y-116689000D01*
X121088000Y-116649000D02*
X125292000Y-116649000D01*
X121156000Y-116609000D02*
X125224000Y-116609000D01*
X121226000Y-116569000D02*
X125154000Y-116569000D01*
X121300000Y-116529000D02*
X125080000Y-116529000D01*
X121377000Y-116489000D02*
X125003000Y-116489000D01*
X121459000Y-116449000D02*
X124921000Y-116449000D01*
X121545000Y-116409000D02*
X124835000Y-116409000D01*
X121638000Y-116369000D02*
X124742000Y-116369000D01*
X121737000Y-116329000D02*
X124643000Y-116329000D01*
X121844000Y-116289000D02*
X124536000Y-116289000D01*
X121961000Y-116249000D02*
X124419000Y-116249000D01*
X122092000Y-116209000D02*
X124288000Y-116209000D01*
X122242000Y-116169000D02*
X124138000Y-116169000D01*
X122422000Y-116129000D02*
X123958000Y-116129000D01*
X122657000Y-116089000D02*
X123723000Y-116089000D01*
X120875000Y-124579698D02*
X120875000Y-123779698D01*
X120475000Y-124179698D02*
X121275000Y-124179698D01*
X71474698Y-97965000D02*
X71474698Y-97165000D01*
X71874698Y-97565000D02*
X71074698Y-97565000D01*
X63384000Y-95783000D02*
X63384000Y-94717000D01*
X63424000Y-96018000D02*
X63424000Y-94482000D01*
X63464000Y-96198000D02*
X63464000Y-94302000D01*
X63504000Y-96348000D02*
X63504000Y-94152000D01*
X63544000Y-96479000D02*
X63544000Y-94021000D01*
X63584000Y-96596000D02*
X63584000Y-93904000D01*
X63624000Y-96703000D02*
X63624000Y-93797000D01*
X63664000Y-96802000D02*
X63664000Y-93698000D01*
X63704000Y-96895000D02*
X63704000Y-93605000D01*
X63744000Y-96981000D02*
X63744000Y-93519000D01*
X63784000Y-97063000D02*
X63784000Y-93437000D01*
X63824000Y-97140000D02*
X63824000Y-93360000D01*
X63864000Y-97214000D02*
X63864000Y-93286000D01*
X63904000Y-97284000D02*
X63904000Y-93216000D01*
X63944000Y-97352000D02*
X63944000Y-93148000D01*
X63984000Y-97416000D02*
X63984000Y-93084000D01*
X64024000Y-97478000D02*
X64024000Y-93022000D01*
X64064000Y-97537000D02*
X64064000Y-92963000D01*
X64104000Y-97595000D02*
X64104000Y-92905000D01*
X64144000Y-97650000D02*
X64144000Y-92850000D01*
X64184000Y-97704000D02*
X64184000Y-92796000D01*
X64224000Y-97755000D02*
X64224000Y-92745000D01*
X64264000Y-97806000D02*
X64264000Y-92694000D01*
X64304000Y-97854000D02*
X64304000Y-92646000D01*
X64344000Y-97901000D02*
X64344000Y-92599000D01*
X64384000Y-97947000D02*
X64384000Y-92553000D01*
X64424000Y-97991000D02*
X64424000Y-92509000D01*
X64464000Y-98034000D02*
X64464000Y-92466000D01*
X64504000Y-98076000D02*
X64504000Y-92424000D01*
X64544000Y-98117000D02*
X64544000Y-92383000D01*
X64584000Y-98157000D02*
X64584000Y-92343000D01*
X64624000Y-98195000D02*
X64624000Y-92305000D01*
X64664000Y-98233000D02*
X64664000Y-92267000D01*
X64704000Y-94210000D02*
X64704000Y-92231000D01*
X64704000Y-98269000D02*
X64704000Y-96290000D01*
X64744000Y-94210000D02*
X64744000Y-92195000D01*
X64744000Y-98305000D02*
X64744000Y-96290000D01*
X64784000Y-94210000D02*
X64784000Y-92160000D01*
X64784000Y-98340000D02*
X64784000Y-96290000D01*
X64824000Y-94210000D02*
X64824000Y-92126000D01*
X64824000Y-98374000D02*
X64824000Y-96290000D01*
X64864000Y-94210000D02*
X64864000Y-92094000D01*
X64864000Y-98406000D02*
X64864000Y-96290000D01*
X64904000Y-94210000D02*
X64904000Y-92061000D01*
X64904000Y-98439000D02*
X64904000Y-96290000D01*
X64944000Y-94210000D02*
X64944000Y-92030000D01*
X64944000Y-98470000D02*
X64944000Y-96290000D01*
X64984000Y-94210000D02*
X64984000Y-92000000D01*
X64984000Y-98500000D02*
X64984000Y-96290000D01*
X65024000Y-94210000D02*
X65024000Y-91970000D01*
X65024000Y-98530000D02*
X65024000Y-96290000D01*
X65064000Y-94210000D02*
X65064000Y-91941000D01*
X65064000Y-98559000D02*
X65064000Y-96290000D01*
X65104000Y-94210000D02*
X65104000Y-91912000D01*
X65104000Y-98588000D02*
X65104000Y-96290000D01*
X65144000Y-94210000D02*
X65144000Y-91885000D01*
X65144000Y-98615000D02*
X65144000Y-96290000D01*
X65184000Y-94210000D02*
X65184000Y-91858000D01*
X65184000Y-98642000D02*
X65184000Y-96290000D01*
X65224000Y-94210000D02*
X65224000Y-91832000D01*
X65224000Y-98668000D02*
X65224000Y-96290000D01*
X65264000Y-94210000D02*
X65264000Y-91806000D01*
X65264000Y-98694000D02*
X65264000Y-96290000D01*
X65304000Y-94210000D02*
X65304000Y-91781000D01*
X65304000Y-98719000D02*
X65304000Y-96290000D01*
X65344000Y-94210000D02*
X65344000Y-91757000D01*
X65344000Y-98743000D02*
X65344000Y-96290000D01*
X65384000Y-94210000D02*
X65384000Y-91733000D01*
X65384000Y-98767000D02*
X65384000Y-96290000D01*
X65424000Y-94210000D02*
X65424000Y-91710000D01*
X65424000Y-98790000D02*
X65424000Y-96290000D01*
X65464000Y-94210000D02*
X65464000Y-91688000D01*
X65464000Y-98812000D02*
X65464000Y-96290000D01*
X65504000Y-94210000D02*
X65504000Y-91666000D01*
X65504000Y-98834000D02*
X65504000Y-96290000D01*
X65544000Y-94210000D02*
X65544000Y-91644000D01*
X65544000Y-98856000D02*
X65544000Y-96290000D01*
X65584000Y-94210000D02*
X65584000Y-91623000D01*
X65584000Y-98877000D02*
X65584000Y-96290000D01*
X65624000Y-94210000D02*
X65624000Y-91603000D01*
X65624000Y-98897000D02*
X65624000Y-96290000D01*
X65664000Y-94210000D02*
X65664000Y-91584000D01*
X65664000Y-98916000D02*
X65664000Y-96290000D01*
X65704000Y-94210000D02*
X65704000Y-91564000D01*
X65704000Y-98936000D02*
X65704000Y-96290000D01*
X65744000Y-94210000D02*
X65744000Y-91546000D01*
X65744000Y-98954000D02*
X65744000Y-96290000D01*
X65784000Y-94210000D02*
X65784000Y-91528000D01*
X65784000Y-98972000D02*
X65784000Y-96290000D01*
X65824000Y-94210000D02*
X65824000Y-91510000D01*
X65824000Y-98990000D02*
X65824000Y-96290000D01*
X65864000Y-94210000D02*
X65864000Y-91493000D01*
X65864000Y-99007000D02*
X65864000Y-96290000D01*
X65904000Y-94210000D02*
X65904000Y-91476000D01*
X65904000Y-99024000D02*
X65904000Y-96290000D01*
X65944000Y-94210000D02*
X65944000Y-91460000D01*
X65944000Y-99040000D02*
X65944000Y-96290000D01*
X65984000Y-94210000D02*
X65984000Y-91445000D01*
X65984000Y-99055000D02*
X65984000Y-96290000D01*
X66024000Y-94210000D02*
X66024000Y-91429000D01*
X66024000Y-99071000D02*
X66024000Y-96290000D01*
X66064000Y-94210000D02*
X66064000Y-91415000D01*
X66064000Y-99085000D02*
X66064000Y-96290000D01*
X66104000Y-94210000D02*
X66104000Y-91400000D01*
X66104000Y-99100000D02*
X66104000Y-96290000D01*
X66144000Y-94210000D02*
X66144000Y-91387000D01*
X66144000Y-99113000D02*
X66144000Y-96290000D01*
X66184000Y-94210000D02*
X66184000Y-91373000D01*
X66184000Y-99127000D02*
X66184000Y-96290000D01*
X66224000Y-94210000D02*
X66224000Y-91361000D01*
X66224000Y-99139000D02*
X66224000Y-96290000D01*
X66264000Y-94210000D02*
X66264000Y-91348000D01*
X66264000Y-99152000D02*
X66264000Y-96290000D01*
X66304000Y-94210000D02*
X66304000Y-91336000D01*
X66304000Y-99164000D02*
X66304000Y-96290000D01*
X66344000Y-94210000D02*
X66344000Y-91325000D01*
X66344000Y-99175000D02*
X66344000Y-96290000D01*
X66384000Y-94210000D02*
X66384000Y-91314000D01*
X66384000Y-99186000D02*
X66384000Y-96290000D01*
X66424000Y-94210000D02*
X66424000Y-91303000D01*
X66424000Y-99197000D02*
X66424000Y-96290000D01*
X66464000Y-94210000D02*
X66464000Y-91293000D01*
X66464000Y-99207000D02*
X66464000Y-96290000D01*
X66504000Y-94210000D02*
X66504000Y-91283000D01*
X66504000Y-99217000D02*
X66504000Y-96290000D01*
X66544000Y-94210000D02*
X66544000Y-91274000D01*
X66544000Y-99226000D02*
X66544000Y-96290000D01*
X66584000Y-94210000D02*
X66584000Y-91265000D01*
X66584000Y-99235000D02*
X66584000Y-96290000D01*
X66624000Y-94210000D02*
X66624000Y-91256000D01*
X66624000Y-99244000D02*
X66624000Y-96290000D01*
X66664000Y-94210000D02*
X66664000Y-91248000D01*
X66664000Y-99252000D02*
X66664000Y-96290000D01*
X66704000Y-94210000D02*
X66704000Y-91240000D01*
X66704000Y-99260000D02*
X66704000Y-96290000D01*
X66744000Y-94210000D02*
X66744000Y-91233000D01*
X66744000Y-99267000D02*
X66744000Y-96290000D01*
X66785000Y-99274000D02*
X66785000Y-91226000D01*
X66825000Y-99280000D02*
X66825000Y-91220000D01*
X66865000Y-99287000D02*
X66865000Y-91213000D01*
X66905000Y-99292000D02*
X66905000Y-91208000D01*
X66945000Y-99298000D02*
X66945000Y-91202000D01*
X66985000Y-99302000D02*
X66985000Y-91198000D01*
X67025000Y-99307000D02*
X67025000Y-91193000D01*
X67065000Y-99311000D02*
X67065000Y-91189000D01*
X67105000Y-99315000D02*
X67105000Y-91185000D01*
X67145000Y-99318000D02*
X67145000Y-91182000D01*
X67185000Y-99321000D02*
X67185000Y-91179000D01*
X67225000Y-99324000D02*
X67225000Y-91176000D01*
X67265000Y-99326000D02*
X67265000Y-91174000D01*
X67305000Y-99327000D02*
X67305000Y-91173000D01*
X67345000Y-99329000D02*
X67345000Y-91171000D01*
X67385000Y-99330000D02*
X67385000Y-91170000D01*
X67425000Y-99330000D02*
X67425000Y-91170000D01*
X67465000Y-99330000D02*
X67465000Y-91170000D01*
X71585000Y-95250000D02*
G75*
G03X71585000Y-95250000I-4120000J0D01*
G01*
X92786000Y-139700000D02*
X91836000Y-139700000D01*
X87046000Y-139700000D02*
X87996000Y-139700000D01*
X91836000Y-138780000D02*
X87996000Y-138780000D01*
X91836000Y-140620000D02*
X91836000Y-138780000D01*
X87996000Y-140620000D02*
X91836000Y-140620000D01*
X87996000Y-138780000D02*
X87996000Y-140620000D01*
X99807000Y-138780000D02*
X99807000Y-140620000D01*
X99807000Y-140620000D02*
X103647000Y-140620000D01*
X103647000Y-140620000D02*
X103647000Y-138780000D01*
X103647000Y-138780000D02*
X99807000Y-138780000D01*
X98857000Y-139700000D02*
X99807000Y-139700000D01*
X104597000Y-139700000D02*
X103647000Y-139700000D01*
X91836000Y-148621000D02*
X91836000Y-146781000D01*
X91836000Y-146781000D02*
X87996000Y-146781000D01*
X87996000Y-146781000D02*
X87996000Y-148621000D01*
X87996000Y-148621000D02*
X91836000Y-148621000D01*
X92786000Y-147701000D02*
X91836000Y-147701000D01*
X87046000Y-147701000D02*
X87996000Y-147701000D01*
X95235000Y-117806000D02*
X95235000Y-124056000D01*
X90185000Y-117806000D02*
X90185000Y-124056000D01*
X90185000Y-117806000D02*
G75*
G02X95235000Y-117806000I2525000J0D01*
G01*
X90185000Y-124056000D02*
G75*
G03X95235000Y-124056000I2525000J0D01*
G01*
X87996000Y-142463000D02*
X87996000Y-144303000D01*
X87996000Y-144303000D02*
X91836000Y-144303000D01*
X91836000Y-144303000D02*
X91836000Y-142463000D01*
X91836000Y-142463000D02*
X87996000Y-142463000D01*
X87046000Y-143383000D02*
X87996000Y-143383000D01*
X92786000Y-143383000D02*
X91836000Y-143383000D01*
X131518000Y-123849000D02*
X131518000Y-119309000D01*
X133658000Y-123849000D02*
X133658000Y-119309000D01*
X131518000Y-123849000D02*
X131533000Y-123849000D01*
X133643000Y-123849000D02*
X133658000Y-123849000D01*
X131518000Y-119309000D02*
X131533000Y-119309000D01*
X133643000Y-119309000D02*
X133658000Y-119309000D01*
X84186000Y-108173000D02*
X84186000Y-110013000D01*
X84186000Y-110013000D02*
X88026000Y-110013000D01*
X88026000Y-110013000D02*
X88026000Y-108173000D01*
X88026000Y-108173000D02*
X84186000Y-108173000D01*
X83236000Y-109093000D02*
X84186000Y-109093000D01*
X88976000Y-109093000D02*
X88026000Y-109093000D01*
X135500000Y-102593000D02*
X129930000Y-102593000D01*
X135500000Y-102833000D02*
X129930000Y-102833000D01*
X135500000Y-102713000D02*
X129930000Y-102713000D01*
X132715000Y-110955000D02*
X132715000Y-110925000D01*
X132715000Y-101135000D02*
X132715000Y-101165000D01*
X135500000Y-110925000D02*
X135500000Y-101165000D01*
X129930000Y-110925000D02*
X135500000Y-110925000D01*
X129930000Y-101165000D02*
X129930000Y-110925000D01*
X135500000Y-101165000D02*
X129930000Y-101165000D01*
X79493000Y-90878000D02*
X73923000Y-90878000D01*
X73923000Y-90878000D02*
X73923000Y-100638000D01*
X73923000Y-100638000D02*
X79493000Y-100638000D01*
X79493000Y-100638000D02*
X79493000Y-90878000D01*
X76708000Y-90848000D02*
X76708000Y-90878000D01*
X76708000Y-100668000D02*
X76708000Y-100638000D01*
X79493000Y-92426000D02*
X73923000Y-92426000D01*
X79493000Y-92546000D02*
X73923000Y-92546000D01*
X79493000Y-92306000D02*
X73923000Y-92306000D01*
D13*
X122174047Y-132465000D02*
X122126428Y-132441190D01*
X122055000Y-132441190D01*
X121983571Y-132465000D01*
X121935952Y-132512619D01*
X121912142Y-132560238D01*
X121888333Y-132655476D01*
X121888333Y-132726904D01*
X121912142Y-132822142D01*
X121935952Y-132869761D01*
X121983571Y-132917380D01*
X122055000Y-132941190D01*
X122102619Y-132941190D01*
X122174047Y-132917380D01*
X122197857Y-132893571D01*
X122197857Y-132726904D01*
X122102619Y-132726904D01*
X122412142Y-132941190D02*
X122412142Y-132441190D01*
X122697857Y-132941190D01*
X122697857Y-132441190D01*
X122935952Y-132941190D02*
X122935952Y-132441190D01*
X123055000Y-132441190D01*
X123126428Y-132465000D01*
X123174047Y-132512619D01*
X123197857Y-132560238D01*
X123221666Y-132655476D01*
X123221666Y-132726904D01*
X123197857Y-132822142D01*
X123174047Y-132869761D01*
X123126428Y-132917380D01*
X123055000Y-132941190D01*
X122935952Y-132941190D01*
X125349047Y-132441190D02*
X125634761Y-132441190D01*
X125491904Y-132941190D02*
X125491904Y-132441190D01*
X125753809Y-132441190D02*
X126087142Y-132941190D01*
X126087142Y-132441190D02*
X125753809Y-132941190D01*
X127551666Y-132941190D02*
X127385000Y-132703095D01*
X127265952Y-132941190D02*
X127265952Y-132441190D01*
X127456428Y-132441190D01*
X127504047Y-132465000D01*
X127527857Y-132488809D01*
X127551666Y-132536428D01*
X127551666Y-132607857D01*
X127527857Y-132655476D01*
X127504047Y-132679285D01*
X127456428Y-132703095D01*
X127265952Y-132703095D01*
X127718333Y-132441190D02*
X128051666Y-132941190D01*
X128051666Y-132441190D02*
X127718333Y-132941190D01*
X129901190Y-132941190D02*
X129734523Y-132703095D01*
X129615476Y-132941190D02*
X129615476Y-132441190D01*
X129805952Y-132441190D01*
X129853571Y-132465000D01*
X129877380Y-132488809D01*
X129901190Y-132536428D01*
X129901190Y-132607857D01*
X129877380Y-132655476D01*
X129853571Y-132679285D01*
X129805952Y-132703095D01*
X129615476Y-132703095D01*
X130091666Y-132917380D02*
X130163095Y-132941190D01*
X130282142Y-132941190D01*
X130329761Y-132917380D01*
X130353571Y-132893571D01*
X130377380Y-132845952D01*
X130377380Y-132798333D01*
X130353571Y-132750714D01*
X130329761Y-132726904D01*
X130282142Y-132703095D01*
X130186904Y-132679285D01*
X130139285Y-132655476D01*
X130115476Y-132631666D01*
X130091666Y-132584047D01*
X130091666Y-132536428D01*
X130115476Y-132488809D01*
X130139285Y-132465000D01*
X130186904Y-132441190D01*
X130305952Y-132441190D01*
X130377380Y-132465000D01*
X130520238Y-132441190D02*
X130805952Y-132441190D01*
X130663095Y-132941190D02*
X130663095Y-132441190D01*
X132048333Y-132441190D02*
X132215000Y-132941190D01*
X132381666Y-132441190D01*
X132834047Y-132893571D02*
X132810238Y-132917380D01*
X132738809Y-132941190D01*
X132691190Y-132941190D01*
X132619761Y-132917380D01*
X132572142Y-132869761D01*
X132548333Y-132822142D01*
X132524523Y-132726904D01*
X132524523Y-132655476D01*
X132548333Y-132560238D01*
X132572142Y-132512619D01*
X132619761Y-132465000D01*
X132691190Y-132441190D01*
X132738809Y-132441190D01*
X132810238Y-132465000D01*
X132834047Y-132488809D01*
X133334047Y-132893571D02*
X133310238Y-132917380D01*
X133238809Y-132941190D01*
X133191190Y-132941190D01*
X133119761Y-132917380D01*
X133072142Y-132869761D01*
X133048333Y-132822142D01*
X133024523Y-132726904D01*
X133024523Y-132655476D01*
X133048333Y-132560238D01*
X133072142Y-132512619D01*
X133119761Y-132465000D01*
X133191190Y-132441190D01*
X133238809Y-132441190D01*
X133310238Y-132465000D01*
X133334047Y-132488809D01*
X134695476Y-132941190D02*
X134695476Y-132441190D01*
X134981190Y-132941190D01*
X134981190Y-132441190D01*
X135219285Y-132679285D02*
X135385952Y-132679285D01*
X135457380Y-132941190D02*
X135219285Y-132941190D01*
X135219285Y-132441190D01*
X135457380Y-132441190D01*
X135600238Y-132441190D02*
X135885952Y-132441190D01*
X135743095Y-132941190D02*
X135743095Y-132441190D01*
D10*
X135367380Y-99956904D02*
X134367380Y-99956904D01*
X135367380Y-99385476D02*
X134795952Y-99814047D01*
X134367380Y-99385476D02*
X134938809Y-99956904D01*
X79360380Y-89669904D02*
X78360380Y-89669904D01*
X79360380Y-89098476D02*
X78788952Y-89527047D01*
X78360380Y-89098476D02*
X78931809Y-89669904D01*
M02*
